<?xml version="1.0" encoding="UTF-8"?>
<svg id="Camada_1" data-name="Camada 1" xmlns="http://www.w3.org/2000/svg" viewBox="0 0 490.48 493.01">
  <defs>
    <style>
      .cls-1 {
        opacity: .5;
      }

      .cls-2 {
        fill: #292d32;
      }
    </style>
  </defs>
  <g class="cls-1">
    <path class="cls-2" d="m248.78,395.17c55.29-57.38,113.26-119.3,168.57-176.66,12.06-12.51,26.28-17.93,43.31-13.01,15.56,4.49,24.92,15.27,28.8,30.91l.11,4.73.89,2.03.03,1.92-.82,2.06.06,4.73c-1.63,9.46-6.49,17.13-13.07,23.93-65.36,67.64-130.69,135.3-195.99,203-5.18,5.37-10.94,9.67-17.73,12.25-3.01,1.14-6.21,1.71-9.43,1.79h-.04s-.04.01-.04.01c-2.68.05-5.23.1-7.9.15h-.05s-.03-.01-.04-.01c-3.22.03-6.45-.42-9.5-1.46-6.87-2.34-12.77-6.45-18.13-11.63-67.63-65.37-135.22-130.77-202.99-195.99-15.49-14.91-18.19-33.64-11.06-48.71,12.6-26.65,44.29-32.45,66.43-12.48,1.66,1.5,3.23,3.09,4.84,4.64,56.17,54.25,112.33,108.5,168.49,162.75l5.27,5.05Z"/>
    <path class="cls-2" d="m253.93,147.66c20.85-20.49,41.35-40.62,61.84-60.76,24.6-24.17,49.18-48.36,73.79-72.52,15.62-15.33,35.6-18.56,54.89-8.95,22.65,11.28,29.51,41.96,13.03,61.11-8.83,10.26-18.88,19.47-28.55,28.98-46.89,46.13-93.83,92.22-140.78,138.3-15.66,15.37-35.65,18.67-54.84,8.86-3.78-1.93-7.26-4.67-10.41-7.55-56.92-52.03-113.8-104.11-170.61-156.26-16.21-14.88-19.28-35.73-8.22-53.19C56.92,5.4,87.84-.56,106.97,14.04c8.48,6.47,16.21,13.93,24.1,21.14,40.18,36.75,80.29,73.56,120.43,110.35.69.64,1.41,1.24,2.43,2.13Z"/>
  </g>
</svg>