<?xml version="1.0" encoding="utf-8"?>
<!-- Generator: Adobe Illustrator 27.3.1, SVG Export Plug-In . SVG Version: 6.00 Build 0)  -->
<svg version="1.1" id="Camada_1" xmlns="http://www.w3.org/2000/svg" xmlns:xlink="http://www.w3.org/1999/xlink" x="0px" y="0px"
	 viewBox="0 0 618 613.5" style="enable-background:new 0 0 618 613.5;" xml:space="preserve">
<style type="text/css">
	.st0{fill:#FFFFFF;}
</style>
<g>
	<path class="st0" d="M609.5,464.7c-22.2-0.1-44.5-0.1-66.7-0.1c-3,0-5.6,0.2-6.2-4.3c-3.5-27.2-20-44.1-47.5-48.5
		c-4.4-0.7-6.2-2.6-6.5-6.7c-2.6-30.5-10.7-59.4-23.6-87.1c-1.5-3.3-2.2-7.1-2.5-10.8c-1.3-15.3-1.8-30.6-3.6-45.8
		c-3.2-26.8-8.9-53.1-22.3-77c-3.6-6.4-8.2-12.5-13-18.1c-4.5-5.3-8.1-5.6-13.1-0.7c-7.3,7.1-14.9,14.2-20.6,22.5
		c-9.9,14.6-18.4,30.2-27.5,45.3c-1.1,1.7-3,4.6-4.1,4.4c-7.4-1.4-15.4,0.4-21.6-6.8c-5.8-6.8-13.4-12-20.3-17.7
		c-0.7-0.6-2.1-0.5-3.2-0.4c-0.3,0-0.9,1.6-0.7,1.9c0.7,0.8,1.6,1.5,2.6,1.9c1.4,0.6,3.2,0.5,4.3,1.4c4.9,3.9,9.6,8.1,14.3,12.2
		c1.2,1,1.9,2.6,3.6,5.1c-3.8,0-6-0.1-8.3,0c-16.4,0.4-32.9,0.5-49.3,1.5c-9,0.5-8.6,0.8-13.3-6.8C250.3,213.5,240.1,197,229,181
		c-4.4-6.3-10.8-11.3-16.6-16.5c-3.6-3.2-7.9-2.6-10.9,1.3c-5.3,7-11.1,13.8-15.2,21.6c-14.9,28.3-19.8,59.4-22.7,90.8
		c-1.8,18.8,0.5,38.4-10.6,55.4c-1.1,1.8-1.7,4-2.4,6c-7.2,21.1-12.6,42.5-14.3,64.8c-0.3,4.2-1.6,6.7-6.4,7.5
		c-5.6,0.9-11.2,2.5-16.3,4.8C95,425.2,86,441,82.3,460.3c-0.7,3.4-1.9,4.5-5.4,4.4c-22.4-0.2-44.8-0.1-67.3,0
		c-3.8,0-9.7-1.4-9.6,4.6c0.1,5.5,5.8,4.1,9.5,4.1c21.8,0.1,43.7,0.1,65.5-0.2c4.6-0.1,7.4,0.4,7.4,6c0,3.2,1.3,6.5,2.4,9.7
		c5.3,14.5,18.8,19.1,32,10.9c1.5-0.9,2.9-2,3.8-2.7c5.1,2.9,9.3,6.4,13.9,7.5c11.1,2.6,20-2.9,28.3-9.7c1.8-1.5,4.4-3.2,6.4-2.8
		c12.7,2.1,20.2-4.2,25.4-14.6c1.6-3.3,3.5-4.5,7.2-4.5c18.1,0.2,36.2,0.2,54.3,0c3.9,0,5.7,1.6,7.8,4.9c3.7,5.9,7.6,12,12.6,16.6
		c10.5,9.6,23.9,9.6,37.3,9.4c20-0.3,34.6-8.9,43.1-27.3c0.7-1.5,3-3.2,4.6-3.3c19.1-0.2,38.1-0.1,57.2-0.2c3.4,0,5.2,1.3,6.2,4.7
		c2.7,9,9.9,14.7,18.3,13.9c8.5-0.8,12.7,3.7,18.5,7.4c9.5,6,22.8,10.4,33.4-0.6c2.9-3,4.7-0.7,6.9,1.1c9.8,7.9,25.5,4.7,30.7-6.7
		c2.2-4.7,3.3-10.1,4.2-15.2c0.7-3.7,2.2-4.8,5.8-4.7c22.2,0.2,44.4,0.1,66.7,0.1c3.5,0,8.7,1.4,8.5-4.3
		C618.1,463.2,612.9,464.6,609.5,464.7L609.5,464.7z M367.3,238.5c10.7-16,21.2-32.1,32.2-47.9c5.3-7.7,8.4-7.5,14.8-0.7
		c10.5,11.2,15.5,25.1,18.2,39.6c3.1,16.8,4.9,33.8,7.1,50.7c0.3,2.1,0,4.2,0,6.3l-1.5,0.5c-18.6-23.2-42.7-37.9-71.2-45.9
		C367.1,240,366.9,239.1,367.3,238.5L367.3,238.5z M308.9,257.4c0.9,0,1.8,0,2.6,0c1,12.5,2.1,25,2.9,37.6c0,0.9-2.5,2.9-3.4,2.6
		c-1.9-0.5-5.1-2.2-5.1-3.3C306.6,282,307.8,269.7,308.9,257.4L308.9,257.4z M180.3,264.9c1.8-20,4.7-39.8,13.1-58.3
		c3.1-6.8,7.9-13.1,12.9-18.7c4.7-5.3,6.9-4.9,11.4,0.5c5.3,6.5,10.5,13.3,15,20.3c6.4,10.1,12.2,20.6,19,32
		c-28.7,8-52.3,23.1-72.7,44.6C179.4,278.6,179.7,271.8,180.3,264.9L180.3,264.9z M179,483.3c-4.6,1.8-8.4,1.1-10.9-3.6
		c-0.8-1.4-1.6-2.7-2.7-3.8c-2.8-2.9-5.1-2.3-6.3,1.6c-0.2,0.6-0.2,1.2-0.2,1.8c0.2,12.5-5.2,13.4-15.2,16.9
		c-7.2,2.6-13.4-1.6-16.3-9.5c-1.2-3.3-3-6.5-4.5-9.7c-0.8,0.2-1.5,0.3-2.3,0.5c-1.1,2.9-2.4,5.7-3.4,8.6c-2.1,6-6.2,9-12.2,9.2
		c-6,0.1-9.6-3.3-11.7-8.2c-11.1-25.7,4.5-57.6,31.5-65c15.1-4.1,29.9-4.8,43.4,4.9c13.6,9.8,19.3,23.9,21,39.8
		C189.9,473.8,184.9,481,179,483.3L179,483.3z M347.3,475.2c-4,10.5-12.5,15.8-23,18.3c-11,2.6-21.9,1.4-32.6-1.4
		c-13.3-3.6-21.5-15.1-22.5-30.6c-0.8-11.5,2.2-22.1,6.7-32.5c3-7.1,8.9-8,15.6-7.7c11.2,0.5,14,3.3,14.5,14.4
		c0.6,13.1,1.1,26.3,1.8,39.4c0.2,3.1,0.9,6.2,1.4,9.4c0.6,0,1.2,0,1.8-0.1c0.4-3.8,1.1-7.5,1.3-11.3c0.7-13.9,1.3-27.8,1.6-41.8
		c0.1-4.4,1.6-7.4,5.8-8.2c4.6-0.9,9.4-2.1,13.8-1.5c3.2,0.4,7.4,2.7,8.9,5.5C351.1,442.3,353.6,458.5,347.3,475.2L347.3,475.2z
		 M422.5,460c-0.7,3.1-1.5,4.7-5.2,4.7c-17.3-0.2-34.6-0.2-51.9,0c-4.5,0.1-5.4-1.5-5.7-5.7c-0.9-9.3,0.5-16.4,9.5-22.1
		c10.2-6.5,15.5-17.4,18.9-29.1c1.5-5.2,4.1-10.1,6.3-15.2c0.7-1.7,1.5-3.4,1.4-5.6c-0.8,1-1.8,1.9-2.5,3
		c-9.9,14.6-25.8,18-40.8,8.3c-5.1-3.3-9.2-8.1-14.3-11.3c-5.7-3.5-12-6.5-18.4-8.4c-3.7-1.1-5.3-2.4-5.9-5.9
		c-0.5-3.4,0.6-5.5,3.8-6.9c13-5.8,21.2-16,26.2-28.9c4.4-11.4-0.6-20.6-12.5-23.9c-14.6-4-29.1-3.5-43.6,0.6
		c-10.3,2.9-15.2,10.9-12,21.2c4.3,13.9,12.5,24.6,26,31.1c1.9,0.9,4,4,3.9,6s-2.5,5.2-4.4,5.5c-10.3,2-18.4,7.3-25.8,14.5
		c-7.3,7-16,11-26.4,11.4c-10,0.4-16.9-4.1-21.9-12.2c-0.7-1.1-1.4-2.2-2.3-3.5c-0.4,0.7-0.8,1.1-0.7,1.3
		c7.8,14.1,8.9,31.6,21.3,43.4c3.7,3.5,8.1,6.2,11.7,9.8c1.7,1.6,2.7,4.2,3.3,6.6c0.5,1.8-0.3,3.9-0.3,5.9
		c-0.2,6.8-3.7,10.2-10.4,10.2c-15.3,0-30.7-0.1-46,0c-4.4,0-6.2-0.9-7.2-6c-4.3-22.6-16-39.5-39.2-46.3c-4.6-1.4-5.3-3.2-4.7-8
		c2.6-18.8,6.3-37.2,15.1-54.2c7.7-14.8,18.6-26.2,34.3-32.5c5.4-2.2,8.5-5.4,10.8-11.2c5.5-14.3,17.9-19.5,32.2-20.9
		c3.7-0.4,7.6,0.3,11.2-0.3c3.2-0.6,6.1-2.5,9.3-3.4c2.4-0.7,5.2-1.9,7.3-1.3c7.5,2.4,12.4,8,16.2,14.7c1.5,2.6,0.9,4.1-1.8,5.6
		c-7.3,4.2-14.3,8.8-21.7,12.9c-1.3,0.7-4,0-5.5-1c-9.5-6.3-19.5-6.5-29.9-3c-0.4,0.1-0.7,0.8-1.3,1.5c5.8,2.4,13.1-0.7,18,6
		c-6.5,2.6-12.6,5-18.7,7.4c0.1,0.5,0.2,1,0.4,1.5h29c-3.3,15.8-11.6,27.6-21.5,39c1.6-1.1,3.4-1.9,4.9-3.2
		c10-8.5,18.7-18,23.1-30.7c5.4-15.9,18.1-21.5,33.2-24.4c13.2-2.6,25.8-0.1,38.1,4.5c9.6,3.7,16.3,10.3,19.7,20.5
		c4.8,14.1,14,24.8,26.6,32.7c0.7,0.5,1.6,0.6,2.7,0.6c-11.4-10.9-20.4-23-24-39.4h29.4c0-0.4,0.1-0.7,0.1-1.1
		c-6.1-2.5-12.2-5-18.3-7.5c0-0.8-0.1-1.5-0.1-2.3c5.8-1.2,11.5-2.4,18.6-3.9c-6.7-3.8-12.8-4.1-18.8-2.8c-4.5,1-8.7,3.4-13.2,4.9
		c-1.8,0.6-4.2,1-5.6,0.2c-6.5-3.6-12.6-7.9-19.1-11.6c-3.8-2.2-4.3-4.4-1.8-8c4.3-6.1,9.2-11.4,16.6-13.5c1.9-0.5,4.5,0.8,6.6,1.6
		c2.7,1,5.2,3,7.9,3.4c8.6,1.4,17.6,1.4,26,3.6c10.3,2.8,16.8,10.4,20.1,20.7c0.8,2.4,2.7,5.4,4.8,6.1c25.7,8.4,38.4,28.4,45.9,52.3
		c3.9,12.5,5.7,25.6,8,38.6c0.3,1.5-1.6,4.6-3,5C439.7,418.4,428,436.6,422.5,460L422.5,460z M527.1,484.8
		c-1.5,6.7-6.1,10.5-11.8,10.4c-7-0.1-11.6-4-13.6-10.5c-0.7-2.4-2.7-4.3-4.1-6.5c-1.5,2.1-3.7,3.9-4.5,6.3
		c-5.3,14.4-19.6,17.2-29.8,5.2c-1.9-2.2-1.4-6.2-2.4-9.3c-0.6-2.1-1.9-4-2.8-6c-1.7,1.1-3.7,1.9-4.9,3.4
		c-6.6,8.6-16.4,7.9-20.4-2.5c-1.9-5-1.9-11.2-1-16.5c4.2-24.1,21.5-39.5,43.6-39.5c28.2-0.1,47.8,14.2,52.2,38.1
		c0.7,4,0.7,8.2,1.2,13.9C528.4,474.7,528.1,479.8,527.1,484.8L527.1,484.8z"/>
	<path class="st0" d="M297.1,131.5c0.4,0.7,0.7,1.4,1,2c-4.1,4.3-8.2,8.6-11.2,11.8c6.4-1.5,14.1-3.4,21.8-5.3
		c8.3-2,10.5-6.4,7.1-14.2c-1.1-2.6-2.6-5.1-4-7.6c0.4-0.4,0.9-0.7,1.3-1.1c25.3,18.3,52.2,34.8,67,64.4c0.5-0.3,0.9-0.6,1.3-0.9
		c-0.8-2.1-1.3-4.4-2.5-6.1c-7-9.2-13-19.6-21.5-27.1c-14.6-12.9-30.9-24.1-46.5-35.9c-7.5-5.7-10.7-4.2-11.9,5.3
		c-0.4,3.5-1,7-1.5,10.6c-9.3-3.7-17.4-6.9-27.2-10.8c0.8,4.5,1.2,7.1,1.7,9.6C283.1,120.1,289,130.2,297.1,131.5L297.1,131.5z"/>
	<path class="st0" d="M284.4,224.3c4.3-0.2,8.5-0.9,12.8-1.7c3.6-0.6,6.1,0.3,7.5,3.9c0.7,1.7,1.8,3.3,2.7,4.9
		c0.6-1.7,0.1-2.7-0.4-3.7c-1.5-3.2-2.3-8.1-4.8-9.3c-2.2-1-6.3,2.6-9.7,3.2c-9.2,1.6-18-0.2-26-4.8c-4.5-2.6-6.4-6.7-2.9-11.9
		c1.1-1.7,1.4-3.9,2.5-7.4c-4.2,0.4-8.7-0.5-10.1,1.2c-3.1,3.5-1.9,8.2,1.2,11.8C264.3,218.6,272.6,225,284.4,224.3L284.4,224.3z"/>
	<path class="st0" d="M265.8,177c-1.5-7.1,0.6-12.7,5.7-17.5c2.5-2.4,4.6-5.1,6.9-7.7c-7.2,4.4-13.7,9.5-15.3,18.1
		c-1.4,7.4-1.9,15-2.9,23.8C264.3,188.3,267.1,183.2,265.8,177L265.8,177z"/>
	<path class="st0" d="M282.7,180c3.6,1.2,7.5-2.9,9-9h-15.6C274.8,177,278.8,178.8,282.7,180z"/>
	<path class="st0" d="M311.2,208.6c5.5,3.6,11,7.1,16.5,10.7c0.3-0.4,0.5-0.8,0.8-1.2c-5.4-3.7-10.8-7.5-16.2-11.2
		C311.9,207.5,311.6,208.1,311.2,208.6L311.2,208.6z"/>
	<path class="st0" d="M311,297.7c0.9,0.2,3.5-1.8,3.4-2.6c-0.8-12.5-1.9-25-2.9-37.6c-0.9,0-1.8,0-2.6,0c-1.1,12.3-2.3,24.6-3,36.9
		C305.9,295.4,309.1,297.1,311,297.7L311,297.7z"/>
</g>
</svg>
