<?xml version="1.0" encoding="UTF-8"?>
<svg id="Camada_1" data-name="Camada 1" xmlns="http://www.w3.org/2000/svg" viewBox="0 0 373.79 373.78">
<defs>
    <style>
      .cls-1 {
        fill: #fff;
      }
    </style>
  </defs>
  <path class="cls-1" d="m16.34,358.28c.23-3.35.9-6.65,1.97-9.83,4.37-12.94,8.72-25.88,13.15-38.79,2.72-7.93,1.97-15.37-2.26-22.64-4.07-7-8.11-14.04-11.65-21.32C2.99,235.76-1.96,203.92.68,171.05c3.27-40.69,18.95-76.36,45.91-107.11,16.86-19.23,36.9-34.22,59.82-45.31,19.25-9.31,39.64-14.94,60.93-17.15,6.04-.63,12.11-.99,18.17-1.47l2.86.05c1.9.25,3.79.56,5.7.72,5.34.43,10.73.45,16.01,1.24,46.03,6.95,84.59,27.86,115.63,62.53,25.58,28.58,41.06,61.89,46.15,99.95.73,5.48,1.25,10.99,1.84,16.49.03,3.81.07,7.6.1,11.41-.32,3.46-.61,6.92-.95,10.38-4.95,50.04-25.9,92.09-63.89,125.06-37.96,32.95-82.46,48.09-132.71,45.69-30.34-1.44-58.63-10.08-84.59-25.9-5.6-3.41-10.97-3.84-17.1-1.82-17.53,5.78-35.13,11.34-52.75,16.8h0c-2.84.87-5.67-1.38-5.46-4.35h0Zm231.19-65.96c3.83-.44,7.78-.43,11.47-1.39,27.34-7.16,40.81-21.52,40.79-47.73,0-4.14-1.52-6.97-5.16-8.7-14.18-6.77-28.28-13.71-42.58-20.2-6.84-3.1-10.6-1.66-15.18,4.47-4.18,5.59-8.28,11.25-12.49,16.82-3.23,4.29-7.57,5.44-12.65,4.11-1.32-.35-2.63-.78-3.9-1.3-31-12.59-54.13-34.17-71.2-62.58-2.66-4.43-1.98-8.33,1.55-12.33,3.71-4.2,7.46-8.38,11.08-12.66,3.99-4.72,4.8-9.89,2.19-15.67-2.51-5.57-4.68-11.29-7.01-16.94-3.38-8.19-6.78-16.36-10.16-24.55-1.9-4.6-4.99-7.65-10.2-8.19-14.01-1.47-25.59,1.97-34.25,14.24-13.9,19.72-15.08,40.63-7.5,62.66,4.5,13.09,11.86,24.63,20,35.78,13.36,18.29,27.93,35.42,45.16,50.23,21.09,18.13,45.45,30.09,71.79,38.31,9.18,2.86,18.44,5.44,28.24,5.62Z"/>
</svg>