<?xml version="1.0" encoding="UTF-8"?>
<svg id="Camada_1" data-name="Camada 1" xmlns="http://www.w3.org/2000/svg" viewBox="0 0 90.01 90">
  <defs>
    <style>
      .cls-1 {
        fill: #c2cc47;
        isolation: isolate;
        opacity: .8;
      }
    </style>
  </defs>
  <circle class="cls-1" cx="45.51" cy="45.5" r="44.5"/>
  <g>
    <g>
      <path d="m87.69,29.18l-10.73-7.56-6.79-4.78-8.96-6.3-2.99-2.1-3.04-2.15-7.8-5.48c-1.55-1.08-3.61-1.08-5.16,0L1.91,29.18c-2.03,1.42-2.52,4.21-1.1,6.24.68.98,1.73,1.64,2.9,1.85.25.05.51.07.77.07.92,0,1.82-.28,2.57-.82l1.91-1.33v49.94c0,2.47,2.01,4.48,4.48,4.48h62.71c2.47,0,4.47-2.01,4.48-4.48v-49.95l1.91,1.35c2.02,1.42,4.82.93,6.24-1.09s.93-4.82-1.09-6.24Zm-10.05,55.92c0,.82-.66,1.49-1.49,1.49H13.44c-.82,0-1.49-.66-1.49-1.49h0v-52.03L44.8,9.95l32.84,23.11v52.03Zm8.99-52.12c-.05.54-.38,1.01-.88,1.24-.49.22-1.06.16-1.5-.16L45.66,6.9c-.51-.37-1.2-.37-1.72,0L5.34,34.06c-.71.42-1.63.18-2.05-.53-.37-.64-.23-1.45.34-1.92L43.94,3.25c.51-.37,1.2-.37,1.72,0l40.31,28.36c.45.31.7.82.67,1.36h0Z"/>
      <path d="m58.99,28.35c-5.31.03-10.39,2.12-14.19,5.83-3.79-3.72-8.88-5.81-14.19-5.83-8.78,0-15.68,8.66-15.68,19.7,0,11.86,7.7,28.28,29.4,35.47.31.1.64.1.94,0,21.7-7.19,29.4-23.6,29.4-35.47,0-11.04-6.9-19.7-15.69-19.7Zm-14.19,52.19c-19.82-6.77-26.88-21.7-26.88-32.47,0-9.38,5.56-16.73,12.69-16.73,4.99.07,9.71,2.24,13.02,5.97.28.36.71.57,1.17.58.46,0,.89-.21,1.17-.58,3.31-3.73,8.04-5.9,13.02-5.97,7.12,0,12.68,7.35,12.68,16.73,0,10.78-7.05,25.7-26.87,32.48Z"/>
      <path d="m52.9,58.82c-1.63-2.92-3.66-6.56-8.1-6.56s-6.47,3.64-8.1,6.56c-.52,1.03-1.14,2-1.84,2.92-1.96,2.34-2.5,5.55-1.42,8.4.91,1.95,2.92,3.15,5.07,3.03,1.28-.03,2.53-.32,3.69-.86.81-.39,1.69-.61,2.59-.65.9.04,1.78.26,2.59.65,1.16.53,2.42.82,3.69.86,2.15.13,4.16-1.06,5.07-3.01,1.08-2.85.54-6.06-1.42-8.4-.7-.92-1.31-1.91-1.84-2.94h0Zm.54,10.06c-.44.89-1.38,1.4-2.36,1.29-.9-.04-1.78-.26-2.59-.65-1.16-.53-2.42-.82-3.69-.86-1.28.03-2.53.32-3.69.86-.81.39-1.69.61-2.59.65-.98.12-1.93-.4-2.36-1.29-.6-1.79-.22-3.77,1-5.21.83-1.06,1.55-2.2,2.17-3.39,1.75-3.13,2.99-5.04,5.49-5.04s3.74,1.91,5.49,5.04c.62,1.19,1.35,2.33,2.17,3.39,1.2,1.45,1.56,3.43.96,5.21Z"/>
      <path d="m31.45,45.76c.65,3.71,3.39,6.4,6.33,6.4.28,0,.55-.02.82-.07,1.71-.35,3.16-1.48,3.9-3.06,1.59-3.4.89-7.43-1.75-10.1-1.99-2.1-5.31-2.19-7.41-.2-.51.48-.91,1.06-1.2,1.7-.79,1.66-1.03,3.52-.7,5.32h0Zm3.38-3.97c.32-.73.97-1.28,1.75-1.47.11-.01.22-.02.33-.02.69.04,1.34.33,1.82.82,1.67,1.75,2.12,4.35,1.14,6.56-.32.73-.97,1.28-1.75,1.47-1.59.28-3.29-1.5-3.71-3.9-.24-1.17-.09-2.39.42-3.47Z"/>
      <path d="m34.18,55.13c-.73-3-3.75-4.85-6.75-4.15-1.41.45-2.53,1.51-3.06,2.89-1.12,2.87-.1,6.14,2.45,7.87.83.54,1.79.84,2.78.86.47,0,.93-.07,1.38-.21,1.41-.45,2.53-1.51,3.06-2.89.56-1.4.61-2.95.14-4.37Zm-2.9,3.22c-.3.96-1.33,1.49-2.28,1.19-.21-.06-.4-.17-.57-.3-1.34-.95-1.88-2.68-1.31-4.22.2-.55.64-.99,1.19-1.19.16-.05.32-.07.49-.07,1.23.15,2.24,1.05,2.54,2.26.26.76.24,1.58-.05,2.33h0Z"/>
      <path d="m57.48,40.46c-.74-1.58-2.19-2.72-3.9-3.06-3.24-.56-6.46,2.27-7.16,6.33-.7,4.06,1.36,7.8,4.6,8.36.27.05.55.07.82.07,2.96,0,5.69-2.69,6.33-6.4.35-1.8.11-3.66-.7-5.31Zm-2.22,4.79c-.42,2.38-2.12,4.18-3.71,3.9s-2.59-2.53-2.19-4.93c.38-2.22,1.89-3.92,3.38-3.92.11,0,.22,0,.33.03.78.2,1.42.74,1.75,1.47.5,1.07.65,2.28.44,3.45Z"/>
      <path d="m62.17,50.96c-3.01-.7-6.02,1.15-6.75,4.15-.46,1.43-.4,2.98.16,4.37.54,1.37,1.66,2.43,3.06,2.89.45.14.91.21,1.38.21.99,0,1.96-.31,2.78-.86,2.55-1.73,3.57-5,2.45-7.87-.55-1.37-1.68-2.43-3.08-2.89h0Zm.37,6.37c-.23.77-.71,1.43-1.37,1.89-.47.37-1.09.48-1.66.3-.57-.18-1.01-.62-1.19-1.19-.28-.75-.3-1.57-.05-2.33.47-1.54,1.85-2.54,3.03-2.19.56.19,1,.63,1.19,1.19.28.75.3,1.57.05,2.33h0Z"/>
    </g>
    <path d="m76.96,21.64l-6.77-4.78-8.96-6.32-2.99-2.1-3.06-2.15"/>
  </g>
</svg>