<?xml version="1.0" encoding="UTF-8"?>
<svg id="Camada_1" data-name="Camada 1" xmlns="http://www.w3.org/2000/svg" viewBox="0 0 89 90.01">
  <defs>
    <style>
      .cls-1 {
        fill: #c2cc47;
        isolation: isolate;
        opacity: .8;
      }

      .cls-2 {
        fill: none;
        stroke: #000;
        stroke-miterlimit: 10;
        stroke-width: 3px;
      }
    </style>
  </defs>
  <circle class="cls-1" cx="44.5" cy="45.51" r="44.5"/>
  <g>
    <path d="m73.8,9.01h-12.94c-.75-2.15-2.78-3.59-5.06-3.6h-3.83c-.99-3.85-4.91-6.17-8.76-5.19-2.55.65-4.53,2.64-5.19,5.19h-3.83c-2.28,0-4.31,1.45-5.06,3.6h-12.94c-2.98,0-5.39,2.4-5.4,5.37,0,0,0,.02,0,.03v70.2c0,2.98,2.4,5.39,5.37,5.4,0,0,.02,0,.03,0h57.6c2.98,0,5.39-2.4,5.4-5.37,0,0,0-.02,0-.03V14.41c0-2.98-2.4-5.39-5.37-5.4,0,0-.02,0-.03,0Zm-39.6,0h5.4c.99,0,1.8-.81,1.8-1.8,0-1.99,1.61-3.6,3.6-3.6s3.6,1.61,3.6,3.6c0,.99.81,1.8,1.8,1.8h5.4c.99,0,1.8.81,1.8,1.8,0,.99-.81,1.8-1.8,1.8h-21.6c-.99,0-1.8-.81-1.8-1.8s.81-1.8,1.8-1.8Zm41.4,75.6c0,.99-.81,1.8-1.8,1.8H16.2c-.99,0-1.8-.81-1.8-1.8V14.41c0-.99.81-1.8,1.8-1.8h12.94c.75,2.15,2.78,3.59,5.06,3.6h21.6c2.28,0,4.31-1.45,5.06-3.6h12.94c.99,0,1.8.81,1.8,1.8v70.2Z"/>
    <path d="m30.6,46.81h-9c-.99,0-1.8.81-1.8,1.8v9c0,.99.81,1.8,1.8,1.8h9c.99,0,1.8-.81,1.8-1.8v-9c0-.99-.81-1.8-1.8-1.8Zm-1.8,9h-5.4v-5.4h5.4v5.4Z"/>
    <path d="m30.6,64.81h-9c-.99,0-1.8.81-1.8,1.8v9c0,.99.81,1.8,1.8,1.8h9c.99,0,1.8-.81,1.8-1.8v-9c0-.99-.81-1.8-1.8-1.8Zm-1.8,9h-5.4v-5.4h5.4v5.4Z"/>
    <path d="m68.4,46.81h-30.6c-.99,0-1.8.8-1.8,1.8,0,.99.8,1.8,1.8,1.8h30.6c.99,0,1.8-.8,1.8-1.8,0-.99-.8-1.8-1.8-1.8h0Z"/>
    <path d="m37.8,57.61h18c.99,0,1.8-.81,1.8-1.8,0-.99-.81-1.8-1.8-1.8h-18c-.99,0-1.8.8-1.8,1.8,0,.99.8,1.8,1.8,1.8h0Z"/>
    <path d="m68.4,64.81h-30.6c-.99,0-1.8.81-1.8,1.8,0,.99.81,1.8,1.8,1.8h30.6c.99,0,1.8-.8,1.8-1.8,0-.99-.8-1.8-1.8-1.8h0Z"/>
    <path d="m55.8,72.01h-18c-.99,0-1.8.8-1.8,1.8,0,.99.8,1.8,1.8,1.8h18c.99,0,1.8-.81,1.8-1.8,0-.99-.81-1.8-1.8-1.8Z"/>
    <path class="cls-2" d="m52.9,31.35l-.56.56-7.36,7.36-7.36-7.36-.56-.56c-5.06-5.29,3.33-12.49,7.9-6.8,4.61-5.69,13,1.51,7.94,6.8Z"/>
  </g>
</svg>