<?xml version="1.0" encoding="UTF-8"?>
<svg id="Camada_1" data-name="Camada 1" xmlns="http://www.w3.org/2000/svg" viewBox="0 0 90 89">
  <defs>
    <style>
      .cls-1 {
        stroke-width: 2.71px;
      }

      .cls-1, .cls-2 {
        fill: none;
        stroke: #000;
        stroke-linecap: round;
        stroke-linejoin: round;
      }

      .cls-3 {
        fill: #c2cc47;
        isolation: isolate;
        opacity: .8;
      }

      .cls-2 {
        stroke-width: 2.03px;
      }
    </style>
  </defs>
  <circle class="cls-3" cx="44.5" cy="44.5" r="44.5"/>
  <g>
    <path class="cls-1" d="m33.44,22.61c-1.2,3.58-5.07,5.52-8.65,4.32-3.58-1.2-5.52-5.07-4.32-8.65,1.2-3.58,5.06-5.51,8.64-4.32,3.58,1.19,5.52,5.06,4.33,8.65,0,0,0,0,0,0h0Z"/>
    <path class="cls-1" d="m25.77,40.72c1.39-4.74-2.11-11.33-7.38-11.5-5.53-.22-8.07,6.15-10.32,10.15-2.2,3.88-4.17,7.88-5.89,11.99-1.38,4.92,1.39,10.05,6.27,11.59l12.28,3.91H5.97c-2.32-.05-4.31,1.67-4.59,3.98-.24,2.42,1.54,4.58,3.96,4.82.14.01.28.02.42.02h17.1c4.73,0,8.56-3.83,8.56-8.56,0-.25-.01-.49-.03-.74-.34-3.24-2.44-6.02-5.46-7.24l-4.93-2.58,2.03-6.83"/>
    <path class="cls-1" d="m22.38,38.73l18.62,10.95c1.83,1.09,2.44,3.46,1.35,5.3h0c-1.09,1.83-3.46,2.44-5.3,1.35l-17.33-10.14"/>
    <path class="cls-1" d="m80.99,66.06l.45,7.03c.15,1.87,1.71,3.32,3.59,3.32h0c1.99,0,3.61-1.61,3.61-3.6,0,0,0,0,0,0v-25.55c0-1.28-1.04-2.31-2.31-2.31h0c-1.05,0-1.97.71-2.24,1.72l-2.21,8.01"/>
    <path class="cls-1" d="m79.44,67.14c-2,.21-4.01.32-6.01.32-1.82,0-3.61-.08-5.32-.25"/>
    <path class="cls-1" d="m66.54,54.2c1.93-.21,5.5-.33,7.57-.33,1.83,0,4.61.11,6.33.27"/>
    <path class="cls-1" d="m65.73,53.71l.41-5.15c.18-2.24-.8-4.42-2.6-5.76h0c-2.57-1.93-6.15-1.72-8.47.5l-3.67,3.5-1.39.58c-1.63.68-2.4,2.56-1.71,4.19.06.15.14.3.23.44h0c.73,1.18,1.99,1.93,3.38,1.98l.99.04c3.1.01,5.61,2.53,5.61,5.63v13.14c0,1.99,1.61,3.61,3.6,3.61h0c1.88,0,3.45-1.45,3.6-3.32l.83-6.64"/>
    <path class="cls-1" d="m65.89,46.18c.6,1.62-.24,3.42-1.86,4.02-1.54.57-3.26-.16-3.94-1.66"/>
    <path class="cls-1" d="m65.79,54.03s-3.49,3.25-7.09,3.66"/>
    <path class="cls-2" d="m50.72,33.84l-.37.37-4.95,4.95-4.96-4.95-.37-.37c-3.38-3.57,2.25-8.42,5.33-4.58,3.08-3.84,8.75,1.01,5.32,4.58Z"/>
  </g>
</svg>