<?xml version="1.0" encoding="UTF-8"?>
<svg id="Camada_1" data-name="Camada 1" xmlns="http://www.w3.org/2000/svg" viewBox="0 0 89 90">
  <defs>
    <style>
      .cls-1 {
        fill: #c2cc47;
        isolation: isolate;
        opacity: .8;
      }
    </style>
  </defs>
  <circle class="cls-1" cx="44.5" cy="44.5" r="44.5"/>
  <g>
    <path d="m49.21,11.01h-18.88c-.87,0-1.57-.7-1.57-1.57s.7-1.57,1.57-1.57h4.72c.87,0,1.57-.71,1.57-1.57,0-1.74,1.41-3.15,3.15-3.15s3.15,1.41,3.15,3.15c0,.87.71,1.57,1.57,1.57h4.72c.87,0,1.57.7,1.57,1.57s-.7,1.57-1.57,1.57h0Zm18.44,66.78c.63-.44,1.15-1.03,1.49-1.71l-1.49,1.71Zm-2.71-69.92h-11.31c-.66-1.88-2.43-3.14-4.42-3.15h-3.34c-.88-3.37-4.32-5.38-7.69-4.5-2.21.58-3.93,2.3-4.5,4.5h-3.34c-1.99,0-3.77,1.27-4.42,3.15h-11.31c-2.6,0-4.71,2.1-4.72,4.7,0,0,0,.01,0,.02v61.35c0,2.6,2.1,4.71,4.7,4.72,0,0,.01,0,.02,0h35.55c-.22-1.03-.34-2.07-.35-3.12v-.02H14.6c-.87,0-1.57-.71-1.57-1.57V12.59c0-.87.71-1.57,1.57-1.57h11.31c.66,1.88,2.43,3.14,4.42,3.15h18.88c1.99,0,3.77-1.27,4.42-3.15h11.31c.87,0,1.57.71,1.57,1.57v47.13h.06c1.04.08,2.08.26,3.09.53V12.59c0-2.6-2.1-4.71-4.7-4.72,0,0-.01,0-.02,0Z"/>
    <path d="m27.19,40.9h-7.86c-.87,0-1.57.71-1.57,1.57v7.87c0,.87.71,1.57,1.57,1.57h7.86c.87,0,1.57-.71,1.57-1.57v-7.87c0-.87-.71-1.57-1.57-1.57Zm-1.58,7.87h-4.71v-4.72h4.71v4.72Z"/>
    <path d="m27.19,56.63h-7.86c-.87,0-1.57.71-1.57,1.58v7.86c0,.87.71,1.57,1.57,1.57h7.86c.87,0,1.57-.71,1.57-1.57v-7.86c0-.87-.7-1.57-1.57-1.58Zm-1.58,7.87h-4.71v-4.72h4.71v4.72Z"/>
    <path d="m60.22,40.9h-26.74c-.87,0-1.57.7-1.57,1.57s.7,1.57,1.57,1.57h26.74c.87,0,1.57-.7,1.57-1.57s-.7-1.57-1.57-1.57Z"/>
    <path d="m33.48,50.34h15.73c.87,0,1.57-.7,1.57-1.57s-.7-1.57-1.57-1.57h-15.73c-.87,0-1.57.7-1.57,1.57s.7,1.57,1.57,1.57Z"/>
    <path d="m60.22,56.63h-26.74c-.87,0-1.57.7-1.57,1.57s.7,1.57,1.57,1.57h26.74c.87,0,1.57-.7,1.57-1.57s-.7-1.57-1.57-1.57Z"/>
    <path d="m49.21,62.92h-15.73c-.87,0-1.57.7-1.58,1.57,0,.87.7,1.57,1.57,1.58h15.73c.87,0,1.57-.71,1.57-1.58,0-.87-.7-1.57-1.57-1.57Z"/>
    <path d="m59.81,75.51h-1.85c.43-.48,1.16-.54,1.67-.16l.18.16Z"/>
    <g>
      <path d="m69.66,61.27c-1.03-.3-2.08-.49-3.15-.57-.35-.02-.71-.04-1.06-.04-8.09.01-14.65,6.57-14.67,14.67v.18c.01,1.06.14,2.11.37,3.15,1.84,7.89,9.72,12.8,17.62,10.97,7.89-1.84,12.8-9.72,10.97-17.62-1.19-5.13-5.04-9.22-10.08-10.73h0Zm-4.21,25.78c-5.19,0-9.77-3.42-11.25-8.4-.3-1.02-.46-2.08-.47-3.15v-.17c0-6.47,5.25-11.71,11.72-11.72.35,0,.71.02,1.06.06,6.04.54,10.67,5.61,10.66,11.68-.01,6.46-5.25,11.7-11.72,11.7Z"/>
      <path d="m72.98,71.65l-3.83,4.42-1.49,1.71h0l-2.12,2.46c-.81.94-2.22,1.08-3.2.32l-2.48-1.93-1.73-1.34c-.54-.4-.64-1.16-.25-1.69,0-.01.02-.03.03-.04.02-.02.04-.06.06-.08h1.87l3.93,3.03,5.92-6.84,1.46-1.67c.45-.51,1.23-.57,1.75-.12.48.48.52,1.25.1,1.77Z"/>
    </g>
    <path d="m49.74,22.22c-.58-.95-1.29-1.81-2.1-2.58-.89-.92-2.18-1.34-3.45-1.12-.31.07-.61.2-.88.37-1.05-.67-2.28-1-3.52-.96-1.27-.04-2.52.31-3.58,1-.26-.16-.55-.28-.85-.35-1.26-.22-2.55.2-3.44,1.12-.81.76-1.52,1.63-2.1,2.58-.94,1.59-1.12,2.95-.53,4.01.5.91,1.41,1.54,2.44,1.67-.1.58-.16,1.18-.16,1.77-.03,1.19.28,2.36.9,3.38.56.86,1.35,1.54,2.28,1.97,1.58.67,3.29.99,5.01.92,1.72.07,3.43-.25,5.01-.92.92-.44,1.71-1.12,2.28-1.97.62-1.02.94-2.19.9-3.38,0-.62-.05-1.24-.16-1.85,1.04-.13,1.94-.75,2.44-1.67.24-.41.36-.88.35-1.36-.05-.94-.35-1.85-.86-2.64Zm-3.22-1.32c.69.64,1.28,1.38,1.77,2.18.43.71.87,1.69.51,2.32-.28.53-.83.86-1.44.85-.1-.27-.2-.55-.31-.85-.16-.43-.33-.89-.51-1.4-.4-1.39-1.04-2.69-1.89-3.85.71-.05,1.39.23,1.87.75h0Zm-13.51,3.11c-.18.53-.33.96-.51,1.4h0c-.12.32-.24.61-.33.9-.6.01-1.15-.31-1.42-.85-.35-.63.08-1.61.51-2.32.49-.8,1.09-1.53,1.77-2.18.44-.45,1.02-.73,1.65-.77h.16c-.81,1.17-1.43,2.45-1.83,3.82Zm6.76,5.74c-.2-.05-.39-.16-.53-.32-.16-.13-.28-.32-.32-.53,0-.08.02-.1.06-.12.26-.07.52-.1.79-.08.26-.02.53,0,.79.08q.06.02.06.12c-.05.2-.16.39-.32.53-.14.16-.33.27-.53.32h0Zm6.37,1.34c-.1.4-.26.77-.47,1.12-.4.6-.95,1.07-1.59,1.38-1.08.48-2.26.72-3.44.73v-3.07c.32-.16.61-.36.87-.61.48-.45.77-1.07.81-1.73.01-.73-.42-1.39-1.1-1.67-.46-.17-.95-.25-1.43-.22-.49-.03-.98.05-1.43.22-.68.28-1.11.94-1.1,1.67.04.66.33,1.28.83,1.73.25.25.54.46.86.61v3.07c-1.18,0-2.36-.25-3.44-.73-.65-.3-1.2-.78-1.59-1.38-.45-.74-.68-1.61-.65-2.48.02-1.29.3-2.56.83-3.74.18-.45.33-.9.53-1.45.36-1.28.96-2.48,1.77-3.54.86-.96,2.11-1.47,3.4-1.4,1.29-.07,2.53.45,3.4,1.4.82,1.05,1.42,2.25,1.77,3.54.18.55.35,1.02.53,1.48.53,1.17.82,2.45.83,3.74,0,.45-.05.9-.16,1.34h0Z"/>
  </g>
</svg>