<?xml version="1.0" encoding="UTF-8"?>
<svg id="Camada_1" data-name="Camada 1" xmlns="http://www.w3.org/2000/svg" viewBox="0 0 374.23 374.22">
  <defs>
    <style>
      .cls-1 {
        fill: #fff;
      }
    </style>
  </defs>
  <path class="cls-1" d="m103.27,0c55.89,0,111.78,0,167.66,0,3.7.34,7.41.61,11.11,1.04,47.07,5.54,84.19,41.97,90.63,88.94.61,4.42,1.04,8.87,1.56,13.31v167.66c-.32,3.46-.61,6.92-.95,10.38-4.59,46.2-41.99,85.12-88.05,91.36-7.26.98-14.65,1.41-21.99,1.43-45.14.13-90.28.1-135.42.03-9.34-.01-18.68-.42-28.02-.63-17.61-.41-33.97-5.31-48.94-14.43-22.62-13.78-38-33.34-46.01-58.69-3.81-12.06-4.71-24.48-4.75-36.95C-.06,213.09.01,162.71.06,112.33c0-5.73.24-11.46.65-17.17C4.1,48.39,41.63,8.21,88.08,1.62c5.04-.72,10.13-1.09,15.2-1.62Zm-20.26,186.71c-1.13,57.52,47.15,105,104.29,104.7,56.98-.3,103.94-47.19,103.99-103.77.05-58.25-47.53-105.1-104.76-104.87-56.86.23-104.68,47.84-103.52,103.94Zm228.43-103.58c11.95.06,21.44-8.83,21.53-20.19.1-11.96-9.26-21.65-21.01-21.75-11.48-.1-21.31,9.4-21.31,20.61,0,12.06,8.97,21.26,20.8,21.33Z"/>
  <path class="cls-1" d="m186.7,249.21c-33.96-.01-61.7-28.19-61.68-62.65.02-33.39,28.44-61.75,62.12-61.44,33.47.31,61.72,26.33,61.95,63.22.2,32.88-28.78,60.88-62.39,60.87Z"/>
</svg>