<?xml version="1.0" encoding="UTF-8"?>
<svg id="Camada_1" data-name="Camada 1" xmlns="http://www.w3.org/2000/svg" viewBox="0 0 374.21 374.22">
  <defs>
    <style>
      .cls-1 {
        fill: #fff;
      }
    </style>
  </defs>
  <path class="cls-1" d="m65.08,0C146.41,0,227.75,0,309.09,0c1.34.27,2.66.61,4.01.81,27.92,4.11,47.07,19.27,56.63,45.82,2.45,6.82,3.03,14.3,4.48,21.48v238.02c-.25,1.59-.67,3.18-.74,4.78-1.38,31.65-29.88,60.95-61.6,62.4-19.92.91-39.89.59-59.84.91-3.73.06-5.06-1.54-5.06-5.16.06-42.16.02-84.33.05-126.49,0-4.49.74-5.2,5.28-5.22,9.73-.06,19.46,0,29.19-.04,5.23-.02,5.88-.65,5.9-5.79.04-11.6.03-23.2,0-34.8,0-6.16-.45-6.59-6.6-6.61-9.61-.02-19.21,0-28.82-.02-2.35,0-4.76-.18-4.88-3.3-.32-8.23-.64-16.48,2.33-24.41,4.31-11.51,13.18-17.91,25.46-17.81,5.58.05,11.2.65,16.7,1.56,3.33.55,4.88.16,5.04-3.54.57-12.7,1.43-25.38,1.95-38.08.27-6.51-.3-7.14-6.86-8.29-14.69-2.59-29.42-3.77-44.25-.88-26.15,5.1-45.43,18.93-56.26,43.75-6,13.73-8.32,28.16-8.62,43-.16,8.01-.04,8.01-8.19,8.02-4.49,0-8.98.06-13.47.01-3.1-.03-4.59,1.34-4.58,4.5.04,12.72.04,25.45,0,38.17,0,3.14,1.43,4.56,4.55,4.53,4.99-.05,9.98,0,14.97.02,6.34.03,6.69.36,6.69,6.86.01,24.45,0,48.9,0,73.35,0,17.09-.04,34.18.02,51.27.01,3.41-.87,5.44-4.8,5.41-37.79-.28-75.59.14-113.35-.91-25.52-.71-44.1-14.18-56.46-36.27C1.37,325.22.05,312.18.04,298.99-.02,223.64,0,148.3.05,72.95c0-4.48.16-9.01.86-13.42C4.92,34.12,18.78,15.98,42.37,5.87,49.47,2.83,57.48,1.9,65.08,0Z"/>
</svg>