<?xml version="1.0" encoding="UTF-8"?>
<svg id="Camada_1" data-name="Camada 1" xmlns="http://www.w3.org/2000/svg" viewBox="0 0 362.76 325.84">
<defs>
    <style>
      .cls-1 {
        fill: #fff;
      }
    </style>
  </defs>
  <path class="cls-1" d="m183.21,130.63c13.85-.19,28.37,3.74,41.22,13.18,6.89,5.06,12.32,11.52,15.73,19.19,5.91,13.31,15.7,23.58,25.27,34.03,10.85,11.86,22.33,23.14,30.88,36.94,7.56,12.2,13.55,24.87,15.05,39.4,1.87,18.15-8.79,39.29-24.32,47.73-6.34,3.45-13.31,4.27-20.24,4.55-17.89.72-35.66-.41-52.73-6.41-5.02-1.76-9.81-4.25-14.59-6.63-11.75-5.86-23.62-6.82-35.53-.78-10.62,5.38-21.5,9.85-33.38,11.5-13.87,1.93-27.74,2.71-41.74,1.26-13.98-1.44-23.6-8.97-30.74-20.55-11.2-18.16-9.66-36.56-1.01-54.96,7.93-16.86,19.2-31.33,32.29-44.57,9.02-9.12,17.25-19.02,25.72-28.66,1.28-1.46,2.11-3.37,2.89-5.18,12.04-27.7,33.74-40.05,65.25-40.04Z"/>
  <path class="cls-1" d="m87.91,140.99c-.24,12.82-2.41,23.21-8.51,32.44-12.32,18.66-35.17,23.18-53.22,9.95C6.44,168.92-1.36,148.74.19,124.67c.54-8.33,3.05-16.12,7.42-23.26,11.12-18.16,32.21-23.58,50.64-12.83,15.63,9.12,24.05,23.41,27.99,40.61,1.02,4.47,1.3,9.1,1.67,11.8Z"/>
  <path class="cls-1" d="m362.71,131.88c-.69,21.72-8.26,40.22-26.88,52.58-21.67,14.39-46.54,6.35-56.6-17.68-10.52-25.13-1.43-58.09,20.49-74.27,21.87-16.15,48.76-8.56,58.93,16.67,2.92,7.25,4.38,14.79,4.06,22.7Z"/>
  <path class="cls-1" d="m281.8,54.4c-.42,13.29-5.24,28.4-17.01,40.75-21.15,22.19-52.09,16.67-64.58-11.44-10.33-23.25-5-52.57,12.85-70.74,19.61-19.95,48.98-15.57,61.93,9.2,4.72,9.02,6.87,18.62,6.81,32.23Z"/>
  <path class="cls-1" d="m168.17,55.34c-.06,14.05-2.6,24.81-8.88,34.55-13.69,21.24-38.45,24.82-57.59,8.31-20.94-18.07-26.71-54.42-12.38-78.15,14.66-24.28,43.6-26.94,62.67-5.63,11.05,12.35,15.91,27.1,16.18,40.92Z"/>
</svg>