<?xml version="1.0" encoding="utf-8"?>
<!-- Generator: Adobe Illustrator 27.3.1, SVG Export Plug-In . SVG Version: 6.00 Build 0)  -->
<svg version="1.1" id="Camada_1" xmlns="http://www.w3.org/2000/svg" xmlns:xlink="http://www.w3.org/1999/xlink" x="0px" y="0px"
	 viewBox="0 0 618 613.5" style="enable-background:new 0 0 618 613.5;" xml:space="preserve">
<style type="text/css">
	.st0{fill:#FFFFFF;}
</style>
<g>
	<path class="st0" d="M609.3,356.4c-22.2-0.1-44.5-0.1-66.7-0.1c-3,0-5.6,0.2-6.2-4.3c-3.5-27.2-20-44.1-47.5-48.5
		c-4.4-0.7-6.2-2.6-6.5-6.7c-2.6-30.5-10.7-59.4-23.6-87.1c-1.5-3.3-2.2-7.1-2.5-10.8c-1.3-15.3-1.8-30.6-3.6-45.8
		c-3.2-26.8-8.9-53.1-22.3-77c-3.6-6.4-8.2-12.5-13-18.1c-4.5-5.3-8.1-5.6-13.1-0.7c-7.3,7.1-14.9,14.2-20.6,22.5
		c-9.9,14.6-18.4,30.2-27.5,45.3c-1.1,1.7-3,4.6-4.1,4.4c-7.4-1.4-15.4,0.4-21.6-6.8c-5.8-6.8-13.4-12-20.3-17.7
		c-0.7-0.6-2.1-0.5-3.2-0.4c-0.3,0-0.9,1.6-0.7,1.9c0.7,0.8,1.6,1.5,2.6,1.9c1.4,0.6,3.2,0.5,4.3,1.4c4.9,3.9,9.6,8.1,14.3,12.2
		c1.2,1,1.9,2.6,3.6,5.1c-3.8,0-6-0.1-8.3,0c-16.4,0.4-32.9,0.5-49.3,1.5c-9,0.5-8.6,0.8-13.3-6.8c-10.1-16.6-20.3-33.1-31.4-49.1
		c-4.4-6.3-10.8-11.3-16.6-16.5c-3.6-3.2-7.9-2.6-10.9,1.3c-5.3,7-11.1,13.8-15.2,21.6c-14.9,28.3-19.8,59.4-22.7,90.8
		c-1.8,18.8,0.5,38.4-10.6,55.4c-1.1,1.8-1.7,4-2.4,6c-7.2,21.1-12.6,42.5-14.3,64.8c-0.3,4.2-1.6,6.7-6.4,7.5
		c-5.6,0.9-11.2,2.5-16.3,4.8c-18.6,8.5-27.6,24.3-31.3,43.6c-0.7,3.4-1.9,4.5-5.4,4.4c-22.4-0.2-44.8-0.1-67.3,0
		c-3.8,0-9.7-1.4-9.6,4.6c0.1,5.5,5.8,4.1,9.5,4.1c21.8,0.1,43.7,0.1,65.5-0.2c4.6-0.1,7.4,0.4,7.4,6c0,3.2,1.3,6.5,2.4,9.7
		c5.3,14.5,18.8,19.1,32,10.9c1.5-0.9,2.9-2,3.8-2.7c5.1,2.9,9.3,6.4,13.9,7.5c11.1,2.6,20-2.9,28.3-9.7c1.8-1.5,4.4-3.2,6.4-2.8
		c12.7,2.1,20.2-4.2,25.4-14.6c1.6-3.3,3.5-4.5,7.2-4.5c18.1,0.2,36.2,0.2,54.3,0c3.9,0,5.7,1.6,7.8,4.9c3.7,5.9,7.6,12,12.6,16.6
		c10.5,9.6,23.9,9.6,37.3,9.4c20-0.3,34.6-8.9,43.1-27.3c0.7-1.5,3-3.2,4.6-3.3c19.1-0.2,38.1-0.1,57.2-0.2c3.4,0,5.2,1.3,6.2,4.7
		c2.7,9,9.9,14.7,18.3,13.9c8.5-0.8,12.7,3.7,18.5,7.4c9.5,6,22.8,10.4,33.4-0.6c2.9-3,4.7-0.7,6.9,1.1c9.8,7.9,25.5,4.7,30.7-6.7
		c2.2-4.7,3.3-10.1,4.2-15.2c0.7-3.7,2.2-4.8,5.8-4.7c22.2,0.2,44.4,0.1,66.7,0.1c3.5,0,8.7,1.4,8.5-4.3
		C617.9,354.9,612.7,356.3,609.3,356.4L609.3,356.4z M367.1,130.2c10.7-16,21.2-32.1,32.2-47.9c5.3-7.7,8.4-7.5,14.8-0.7
		c10.5,11.2,15.5,25.1,18.2,39.6c3.1,16.8,4.9,33.8,7.1,50.7c0.3,2.1,0,4.2,0,6.3l-1.5,0.5c-18.6-23.2-42.7-37.9-71.2-45.9
		C366.9,131.7,366.7,130.8,367.1,130.2L367.1,130.2z M308.7,149.1c0.9,0,1.8,0,2.6,0c1,12.5,2.1,25,2.9,37.6c0,0.9-2.5,2.9-3.4,2.6
		c-1.9-0.5-5.1-2.2-5.1-3.3C306.4,173.7,307.6,161.4,308.7,149.1L308.7,149.1z M180.1,156.6c1.8-20,4.7-39.8,13.1-58.3
		c3.1-6.8,7.9-13.1,12.9-18.7c4.7-5.3,6.9-4.9,11.4,0.5c5.3,6.5,10.5,13.3,15,20.3c6.4,10.1,12.2,20.6,19,32
		c-28.7,8-52.3,23.1-72.7,44.6C179.2,170.3,179.5,163.5,180.1,156.6L180.1,156.6z M178.8,375c-4.6,1.8-8.4,1.1-10.9-3.6
		c-0.8-1.4-1.6-2.7-2.7-3.8c-2.8-2.9-5.1-2.3-6.3,1.6c-0.2,0.6-0.2,1.2-0.2,1.8c0.2,12.5-5.2,13.4-15.2,16.9
		c-7.2,2.6-13.4-1.6-16.3-9.5c-1.2-3.3-3-6.5-4.5-9.7c-0.8,0.2-1.5,0.3-2.3,0.5c-1.1,2.9-2.4,5.7-3.4,8.6c-2.1,6-6.2,9-12.2,9.2
		c-6,0.1-9.6-3.3-11.7-8.2c-11.1-25.7,4.5-57.6,31.5-65c15.1-4.1,29.9-4.8,43.4,4.9c13.6,9.8,19.3,23.9,21,39.8
		C189.7,365.5,184.7,372.7,178.8,375L178.8,375z M347.1,366.9c-4,10.5-12.5,15.8-23,18.3c-11,2.6-21.9,1.4-32.6-1.4
		c-13.3-3.6-21.5-15.1-22.5-30.6c-0.8-11.5,2.2-22.1,6.7-32.5c3-7.1,8.9-8,15.6-7.7c11.2,0.5,14,3.3,14.5,14.4
		c0.6,13.1,1.1,26.3,1.8,39.4c0.2,3.1,0.9,6.2,1.4,9.4c0.6,0,1.2,0,1.8-0.1c0.4-3.8,1.1-7.5,1.3-11.3c0.7-13.9,1.3-27.8,1.6-41.8
		c0.1-4.4,1.6-7.4,5.8-8.2c4.6-0.9,9.4-2.1,13.8-1.5c3.2,0.4,7.4,2.7,8.9,5.5C350.9,334,353.4,350.2,347.1,366.9L347.1,366.9z
		 M422.3,351.7c-0.7,3.1-1.5,4.7-5.2,4.7c-17.3-0.2-34.6-0.2-51.9,0c-4.5,0.1-5.4-1.5-5.7-5.7c-0.9-9.3,0.5-16.4,9.5-22.1
		c10.2-6.5,15.5-17.4,18.9-29.1c1.5-5.2,4.1-10.1,6.3-15.2c0.7-1.7,1.5-3.4,1.4-5.6c-0.8,1-1.8,1.9-2.5,3
		c-9.9,14.6-25.8,18-40.8,8.3c-5.1-3.3-9.2-8.1-14.3-11.3c-5.7-3.5-12-6.5-18.4-8.4c-3.7-1.1-5.3-2.4-5.9-5.9
		c-0.5-3.4,0.6-5.5,3.8-6.9c13-5.8,21.2-16,26.2-28.9c4.4-11.4-0.6-20.6-12.5-23.9c-14.6-4-29.1-3.5-43.6,0.6
		c-10.3,2.9-15.2,10.9-12,21.2c4.3,13.9,12.5,24.6,26,31.1c1.9,0.9,4,4,3.9,6c-0.1,2-2.5,5.2-4.4,5.5c-10.3,2-18.4,7.3-25.8,14.5
		c-7.3,7-16,11-26.4,11.4c-10,0.4-16.9-4.1-21.9-12.2c-0.7-1.1-1.4-2.2-2.3-3.5c-0.4,0.7-0.8,1.1-0.7,1.3
		c7.8,14.1,8.9,31.6,21.3,43.4c3.7,3.5,8.1,6.2,11.7,9.8c1.7,1.6,2.7,4.2,3.3,6.6c0.5,1.8-0.3,3.9-0.3,5.9
		c-0.2,6.8-3.7,10.2-10.4,10.2c-15.3,0-30.7-0.1-46,0c-4.4,0-6.2-0.9-7.2-6c-4.3-22.6-16-39.5-39.2-46.3c-4.6-1.4-5.3-3.2-4.7-8
		c2.6-18.8,6.3-37.2,15.1-54.2c7.7-14.8,18.6-26.2,34.3-32.5c5.4-2.2,8.5-5.4,10.8-11.2c5.5-14.3,17.9-19.5,32.2-20.9
		c3.7-0.4,7.6,0.3,11.2-0.3c3.2-0.6,6.1-2.5,9.3-3.4c2.4-0.7,5.2-1.9,7.3-1.3c7.5,2.4,12.4,8,16.2,14.7c1.5,2.6,0.9,4.1-1.8,5.6
		c-7.3,4.2-14.3,8.8-21.7,12.9c-1.3,0.7-4,0-5.5-1c-9.5-6.3-19.5-6.5-29.9-3c-0.4,0.1-0.7,0.8-1.3,1.5c5.8,2.4,13.1-0.7,18,6
		c-6.5,2.6-12.6,5-18.7,7.4c0.1,0.5,0.2,1,0.4,1.5h29c-3.3,15.8-11.6,27.6-21.5,39c1.6-1.1,3.4-1.9,4.9-3.2
		c10-8.5,18.7-18,23.1-30.7c5.4-15.9,18.1-21.5,33.2-24.4c13.2-2.6,25.8-0.1,38.1,4.5c9.6,3.7,16.3,10.3,19.7,20.5
		c4.8,14.1,14,24.8,26.6,32.7c0.7,0.5,1.6,0.6,2.7,0.6c-11.4-10.9-20.4-23-24-39.4h29.4c0-0.4,0.1-0.7,0.1-1.1
		c-6.1-2.5-12.2-5-18.3-7.5c0-0.8-0.1-1.5-0.1-2.3c5.8-1.2,11.5-2.4,18.6-3.9c-6.7-3.8-12.8-4.1-18.8-2.8c-4.5,1-8.7,3.4-13.2,4.9
		c-1.8,0.6-4.2,1-5.6,0.2c-6.5-3.6-12.6-7.9-19.1-11.6c-3.8-2.2-4.3-4.4-1.8-8c4.3-6.1,9.2-11.4,16.6-13.5c1.9-0.5,4.5,0.8,6.6,1.6
		c2.7,1,5.2,3,7.9,3.4c8.6,1.4,17.6,1.4,26,3.6c10.3,2.8,16.8,10.4,20.1,20.7c0.8,2.4,2.7,5.4,4.8,6.1c25.7,8.4,38.4,28.4,45.9,52.3
		c3.9,12.5,5.7,25.6,8,38.6c0.3,1.5-1.6,4.6-3,5C439.5,310.1,427.8,328.3,422.3,351.7L422.3,351.7z M526.9,376.5
		c-1.5,6.7-6.1,10.5-11.8,10.4c-7-0.1-11.6-4-13.6-10.5c-0.7-2.4-2.7-4.3-4.1-6.5c-1.5,2.1-3.7,3.9-4.5,6.3
		c-5.3,14.4-19.6,17.2-29.8,5.2c-1.9-2.2-1.4-6.2-2.4-9.3c-0.6-2.1-1.9-4-2.8-6c-1.7,1.1-3.7,1.9-4.9,3.4
		c-6.6,8.6-16.4,7.9-20.4-2.5c-1.9-5-1.9-11.2-1-16.5c4.2-24.1,21.5-39.5,43.6-39.5c28.2-0.1,47.8,14.2,52.2,38.1
		c0.7,4,0.7,8.2,1.2,13.9C528.2,366.4,527.9,371.5,526.9,376.5L526.9,376.5z"/>
	<path class="st0" d="M296.9,23.2c0.4,0.7,0.7,1.4,1,2c-4.1,4.3-8.2,8.6-11.2,11.8c6.4-1.5,14.1-3.4,21.8-5.3
		c8.3-2,10.5-6.4,7.1-14.2c-1.1-2.6-2.6-5.1-4-7.6c0.4-0.4,0.9-0.7,1.3-1.1c25.3,18.3,52.2,34.8,67,64.4c0.5-0.3,0.9-0.6,1.3-0.9
		c-0.8-2.1-1.3-4.4-2.5-6.1c-7-9.2-13-19.6-21.5-27.1c-14.6-12.9-30.9-24.1-46.5-35.9c-7.5-5.7-10.7-4.2-11.9,5.3
		c-0.4,3.5-1,7-1.5,10.6c-9.3-3.7-17.4-6.9-27.2-10.8c0.8,4.5,1.2,7.1,1.7,9.6C282.9,11.8,288.8,21.9,296.9,23.2L296.9,23.2z"/>
	<path class="st0" d="M284.2,116c4.3-0.2,8.5-0.9,12.8-1.7c3.6-0.6,6.1,0.3,7.5,3.9c0.7,1.7,1.8,3.3,2.7,4.9
		c0.6-1.7,0.1-2.7-0.4-3.7c-1.5-3.2-2.3-8.1-4.8-9.3c-2.2-1-6.3,2.6-9.7,3.2c-9.2,1.6-18-0.2-26-4.8c-4.5-2.6-6.4-6.7-2.9-11.9
		c1.1-1.7,1.4-3.9,2.5-7.4c-4.2,0.4-8.7-0.5-10.1,1.2c-3.1,3.5-1.9,8.2,1.2,11.8C264.1,110.3,272.4,116.7,284.2,116L284.2,116z"/>
	<path class="st0" d="M265.6,68.7c-1.5-7.1,0.6-12.7,5.7-17.5c2.5-2.4,4.6-5.1,6.9-7.7c-7.2,4.4-13.7,9.5-15.3,18.1
		c-1.4,7.4-1.9,15-2.9,23.8C264.1,80,266.9,74.9,265.6,68.7L265.6,68.7z"/>
	<path class="st0" d="M282.5,71.7c3.6,1.2,7.5-2.9,9-9h-15.6C274.6,68.7,278.6,70.5,282.5,71.7z"/>
	<path class="st0" d="M311,100.3c5.5,3.6,11,7.1,16.5,10.7c0.3-0.4,0.5-0.8,0.8-1.2c-5.4-3.7-10.8-7.5-16.2-11.2
		C311.7,99.2,311.4,99.8,311,100.3L311,100.3z"/>
	<path class="st0" d="M310.8,189.4c0.9,0.2,3.5-1.8,3.4-2.6c-0.8-12.5-1.9-25-2.9-37.6c-0.9,0-1.8,0-2.6,0
		c-1.1,12.3-2.3,24.6-3,36.9C305.7,187.1,308.9,188.8,310.8,189.4L310.8,189.4z"/>
</g>
<g>
	<path class="st0" d="M61,498.4H23.9l-7.3,18c-1.1,2.9-3.2,4.2-6.6,4.2c-4,0-7.1-3.1-7.1-7c0-0.9,0.2-1.7,0.6-2.7l31-72.7
		c1.9-4.1,4.7-6.2,8.6-6.2s6.5,2.1,8.3,6.2l30.8,72.5c0.4,1.1,0.6,2.1,0.6,3c0,3.8-3.2,7-7.1,7s-6.2-1.6-7.5-4.7L61,498.4L61,498.4z
		 M42.5,452.9l-12.8,31.2h25.5L42.5,452.9z"/>
	<path class="st0" d="M135.7,432.3c34.8,0,48.8,20,48.8,43c0,12.9-4.4,23.6-12.9,32c-8.7,8.4-21,12.7-36.9,12.7c-2.2,0-8-0.1-17-0.2
		c-4.3,0-7.6-3.5-7.6-7.6v-71.8c0-4.1,3.2-7.6,7.6-7.7C126.1,432.4,132.1,432.3,135.7,432.3L135.7,432.3z M125.4,505.4
		c2.9,0.1,6.1,0.2,9.8,0.2c20.8,0,33.2-11.8,33.2-30.3s-12.4-28.7-32.9-28.7c-3.2,0-6.6,0.1-10.1,0.4V505.4z"/>
	<path class="st0" d="M221,444.1c8.4-8.6,19.3-12.8,32.4-12.8s24,4.1,32.6,12.4s12.8,19.1,12.8,32.4s-4.4,23.7-12.9,32.2
		c-8.6,8.4-19.4,12.7-32.4,12.7s-23.9-4.1-32.4-12.4s-12.8-19.1-12.8-32.4S212.4,452.7,221,444.1L221,444.1z M232.8,497.9
		c5.6,5.8,12.4,8.8,20.6,8.8c8.9,0,16-2.9,21.4-8.7c5.2-5.8,7.8-13,7.8-21.9s-2.7-16.3-8.3-22c-5.6-5.7-12.5-8.6-20.9-8.6
		s-15.3,2.9-20.8,8.6c-5.6,5.7-8.3,13-8.3,22S227.2,492.1,232.8,497.9L232.8,497.9z"/>
	<path class="st0" d="M369.1,523.8c9.2,0.8,13.8,4.3,13.8,10.8s-6.2,10.9-16.5,10.9c-5.7,0-10.4-1.2-14.3-3.8
		c-1.1-0.6-1.6-1.7-1.6-3.1c0-0.8,0.2-1.5,0.6-2.1c0.9-1.4,2-2,3.5-2c0.8,0,1.5,0.1,2.1,0.5c2.5,1.2,4.6,1.9,6.2,1.9
		c3.2,0,4.9-1,4.9-3.1c0-1.4-0.8-2.4-2.1-3c-2.5-1.1-3.7-3-3.7-5.3v-4.6c-11.9-1.1-21.5-5.7-28.7-13.8s-10.8-18.3-10.8-30.8
		s4-23.7,11.8-32.2s18.8-12.7,32.7-12.7c7.3,0,13.8,1.5,19.6,4.5c3.1,1.5,4.7,3.6,4.7,6.5c0,1.1-0.4,2.2-1,3.6
		c-1.4,2.4-3.4,3.5-6.1,3.5c-1.5,0-2.9-0.2-4.1-0.9c-4.5-1.9-8.8-2.9-13.2-2.9c-8.2,0-14.9,2.7-20.3,8.3c-5.4,5.6-8.1,12.9-8.1,22.2
		s2.9,16.4,8.5,22c5.6,5.7,12.8,8.6,21.6,8.6c4.6,0,9.3-1.1,13.9-3.4c1.9-0.9,3.6-1.2,5-1.2c2.4,0,4.2,1,5.6,2.9
		c0.9,1.1,1.2,2.5,1.2,4c0,2.6-1.1,4.6-3.5,6.1c-5.5,3.7-12.7,5.7-21.8,6L369.1,523.8L369.1,523.8z"/>
	<path class="st0" d="M469.7,498.4h-37.2l-7.3,18c-1.1,2.9-3.2,4.2-6.6,4.2c-4,0-7.1-3.1-7.1-7c0-0.9,0.2-1.7,0.6-2.7l31-72.7
		c1.9-4.1,4.7-6.2,8.6-6.2s6.5,2.1,8.3,6.2l30.8,72.5c0.4,1.1,0.6,2.1,0.6,3c0,3.8-3.2,7-7.1,7s-6.2-1.6-7.5-4.7L469.7,498.4
		L469.7,498.4z M459.8,427.1c-2.1,0-5-0.9-8.6-2.7c-3.7-1.9-6.7-2.7-9-2.7c-1.5,0-3.5,0.8-5.8,2.2c-1.1,0.6-2.1,1-3.1,1
		c-1.4,0-2.7-0.8-3.9-2.1c-0.6-0.9-1-1.7-1-2.9c0-1.6,0.6-3,1.7-3.9c4.6-3.9,9-5.7,12.8-5.7c2.6,0,5.6,0.9,9.2,2.7
		c3.6,1.9,6.5,2.9,8.6,2.9c1.5,0,3.5-0.8,5.8-2.4c2.5-1.9,5.6-2,7.5,0.4c0.8,0.9,1.1,1.9,1.1,3c0,1.4-0.6,2.6-1.9,3.7
		C468.5,425,464,427.1,459.8,427.1L459.8,427.1z M451.2,452.9l-12.8,31.2h25.5L451.2,452.9L451.2,452.9z"/>
	<path class="st0" d="M522.2,444.1c8.5-8.6,19.3-12.8,32.4-12.8s24,4.1,32.6,12.4s12.8,19.1,12.8,32.4s-4.3,23.7-12.9,32.2
		c-8.6,8.4-19.4,12.7-32.4,12.7s-23.9-4.1-32.4-12.4c-8.6-8.3-12.8-19.1-12.8-32.4S513.6,452.7,522.2,444.1L522.2,444.1z M534,497.9
		c5.6,5.8,12.4,8.8,20.6,8.8c9,0,16-2.9,21.4-8.7c5.2-5.8,7.8-13,7.8-21.9s-2.7-16.3-8.3-22c-5.6-5.7-12.5-8.6-20.9-8.6
		s-15.3,2.9-20.8,8.6c-5.6,5.7-8.3,13-8.3,22S528.4,492.1,534,497.9L534,497.9z"/>
</g>
<g>
	<path class="st0" d="M78.6,575.4c3.1-3.2,7.3-4.8,12.5-4.8c2.8,0,5.2,0.6,7.4,1.7c1.2,0.6,1.8,1.4,1.8,2.5c0,0.4-0.1,0.8-0.4,1.4
		c-0.5,0.9-1.3,1.3-2.3,1.3c-0.6,0-1.1-0.1-1.6-0.3c-1.7-0.7-3.3-1.1-5-1.1c-3.2,0-5.9,1-8,3.1c-2,2.1-3.1,4.9-3.1,8.5
		s1,6.3,3.1,8.4c2,2.1,4.8,3.2,8.1,3.2c2.5,0,5.6-1.1,6.8-2.3v-5.2h-5.3c-1.5,0-2.6-1.2-2.6-2.7s1.2-2.7,2.6-2.7h8.1
		c1.5,0,2.6,1.2,2.6,2.6v8.9c0,1.6-0.7,2.9-2.1,3.8c-2.9,1.8-6.9,3-10.3,3c-5.3,0-9.5-1.6-12.6-4.6s-4.6-7.2-4.6-12.4
		C73.9,582.7,75.5,578.6,78.6,575.4L78.6,575.4z"/>
	<path class="st0" d="M119.2,584.9c1.3-1.7,2.9-2.5,4.8-2.5c1.4,0,2.8,0.8,2.8,2.5c0,1.8-1.1,2.8-3.4,2.8c-0.1,0-0.6,0-0.8,0h-0.3
		c-1.4,0-2.4,0.8-3.1,2.3v12c0,1.5-1.2,2.6-2.7,2.6s-2.7-1.2-2.7-2.6v-16.3c0-1.8,1.1-3,2.8-3C118.1,582.5,119.2,583.6,119.2,584.9
		L119.2,584.9z"/>
	<path class="st0" d="M148.8,585.2c0-1.5,1.2-2.6,2.7-2.6s2.7,1.2,2.7,2.6v16.6c0,1.5-1.2,2.6-2.7,2.6s-2.7-1.1-2.7-3
		c-1.7,2.1-4,3.1-6.8,3.1c-4.4,0-7.4-3-7.4-8.8v-10.7c0-1.5,1.2-2.6,2.7-2.6s2.7,1.2,2.7,2.6v9.5c0,3.2,1.4,4.8,4.1,4.8
		c1.8,0,3.4-0.8,4.8-2.6L148.8,585.2L148.8,585.2z"/>
	<path class="st0" d="M164.9,585.6c0-1.9,1.1-3.1,2.8-3.1c1.5,0,2.6,1,2.6,2.3c1.4-1.5,3.9-2.5,6.6-2.5c2.9,0,5.2,1,7,3
		c1.7,2,2.6,4.6,2.6,7.8s-1,6-3.1,8.2s-4.8,3.2-8.1,3.2c-2.1,0-3.8-0.3-4.9-1v7.3c0,1.5-1.2,2.6-2.7,2.6s-2.7-1.2-2.7-2.6V585.6
		L164.9,585.6z M170.3,598.3c1.3,0.8,2.7,1.2,4.5,1.2c3.6,0,5.9-2.6,5.9-6.3c0-3.4-2-5.8-5.6-5.8c-1.8,0-3.5,0.8-4.9,2.3
		L170.3,598.3L170.3,598.3z"/>
	<path class="st0" d="M194.6,593.5c0-3.2,1.1-5.9,3.2-8c2.1-2.1,4.9-3.1,8.3-3.1s6.3,1,8.4,3.1c2.1,2.1,3.2,4.8,3.2,8s-1,5.9-3.2,8
		c-2.1,2.1-4.9,3.2-8.4,3.2s-6.2-1-8.3-3.2C195.7,599.4,194.6,596.7,194.6,593.5z M206.2,599.6c3.4,0,5.8-2.5,5.8-6.1s-2.4-6-5.8-6
		s-5.8,2.5-5.8,6S202.8,599.6,206.2,599.6z"/>
	<path class="st0" d="M241.6,597.3c0.5-0.6,1.2-0.9,2-0.9c0.7,0,1.4,0.2,2.1,0.7c1.8,1.4,3.6,2.1,5.2,2.1c2.8,0,4.8-1.4,4.8-3.9
		c0-6.5-14.9-5-14.9-15.7c0-2.6,0.9-4.8,2.8-6.5c1.8-1.7,4.3-2.6,7.4-2.6c2.6,0,4.7,0.5,6.5,1.4c1.3,0.7,1.9,1.5,1.9,2.6
		c0,0.4-0.1,0.9-0.4,1.4c-0.5,0.9-1.2,1.3-2.2,1.3c-0.5,0-1-0.1-1.5-0.3c-1.5-0.6-2.7-0.9-3.9-0.9c-2.8,0-4.5,1.5-4.5,3.7
		c0,6.8,14.9,4.7,14.9,15.7c0,2.7-1,5-3.2,6.7s-4.7,2.6-7.9,2.6c-3.4,0-6.4-1.1-8.9-3.2c-0.7-0.6-1.1-1.4-1.1-2.2
		C240.9,598.5,241.1,597.9,241.6,597.3L241.6,597.3z"/>
	<path class="st0" d="M277.9,591c1.9,0,3.5,0.5,4.8,1.4v-0.7c0-3.2-1.1-4.8-4-4.8c-1.2,0-2.3,0.1-3.3,0.5c-0.5,0.1-0.9,0.2-1.1,0.2
		c-0.9,0-1.5-0.4-1.8-1.1c-0.1-0.3-0.2-0.6-0.2-0.9c0-0.9,0.5-1.6,1.6-2c1.7-0.8,3.5-1.1,5.4-1.1c6,0,8.5,3,8.5,8.8V602
		c0,1.3-1,2.4-2.4,2.4s-2.3-1-2.3-2.5c-1.4,1.7-3.4,2.5-6.3,2.5c-4,0-6.6-2.5-6.6-6.5C270.1,593.4,273.3,591,277.9,591L277.9,591z
		 M281.8,579.3c-0.7,0-1.6-0.4-2.7-1.2c-1.1-0.8-2-1.2-2.7-1.2c-0.3,0-0.9,0.3-1.8,0.8c-0.5,0.3-0.9,0.5-1.3,0.5
		c-0.4,0-0.9-0.2-1.3-0.7c-0.2-0.2-0.3-0.6-0.3-0.9c0-0.6,0.2-1.2,0.8-1.6c1.6-1.3,3-2,4.4-2c0.8,0,1.7,0.4,2.8,1.2
		c1.1,0.8,2,1.2,2.6,1.2c0.9,0,1.4-0.5,1.9-0.9c0.5-0.3,0.9-0.5,1.4-0.5s0.9,0.2,1.2,0.6c0.3,0.3,0.4,0.7,0.4,1c0,0.5-0.2,1-0.8,1.5
		C284.7,578.6,283.2,579.3,281.8,579.3L281.8,579.3z M282.7,595.7c-0.9-0.7-2.2-1-3.7-1c-1.9,0-3.4,0.9-3.4,2.6c0,1.6,1.3,2.5,3,2.5
		c1.8,0,3.2-0.7,4.1-1.9L282.7,595.7L282.7,595.7z"/>
	<path class="st0" d="M296.7,593.5c0-3.2,1.1-5.9,3.2-8c2.1-2.1,4.9-3.1,8.3-3.1s6.3,1,8.4,3.1c2.1,2.1,3.2,4.8,3.2,8s-1,5.9-3.2,8
		c-2.1,2.1-5,3.2-8.4,3.2s-6.2-1-8.3-3.2C297.8,599.4,296.7,596.7,296.7,593.5z M308.3,599.6c3.4,0,5.8-2.5,5.8-6.1s-2.5-6-5.8-6
		s-5.8,2.5-5.8,6S304.9,599.6,308.3,599.6z"/>
	<path class="st0" d="M359.9,576c-3.1,0-5.7,1-7.7,3.2c-2,2.1-3.1,4.9-3.1,8.4s1.1,6.2,3.2,8.3c2.1,2.2,4.9,3.2,8.2,3.2
		c1.7,0,3.5-0.4,5.3-1.3c0.7-0.3,1.4-0.5,1.9-0.5c0.9,0,1.6,0.4,2.1,1.1c0.3,0.4,0.5,0.9,0.5,1.5c0,1-0.4,1.7-1.3,2.3
		c-2.3,1.5-5.3,2.3-9,2.3c-5,0-9.1-1.6-12.3-4.7c-3.2-3.1-4.7-7.2-4.7-12.3s1.5-9,4.5-12.2s7.1-4.8,12.4-4.8c2.8,0,5.2,0.6,7.5,1.7
		c1.2,0.6,1.8,1.4,1.8,2.5c0,0.4-0.1,0.8-0.4,1.4c-0.5,0.9-1.3,1.3-2.3,1.3c-0.6,0-1.1-0.1-1.6-0.3C363.2,576.4,361.6,576,359.9,576
		L359.9,576z"/>
	<path class="st0" d="M376.4,593.5c0-3.2,1.1-5.9,3.2-8c2.1-2.1,4.9-3.1,8.3-3.1s6.3,1,8.4,3.1c2.1,2.1,3.2,4.8,3.2,8s-1,5.9-3.2,8
		c-2.1,2.1-5,3.2-8.4,3.2s-6.2-1-8.3-3.2C377.4,599.4,376.4,596.7,376.4,593.5z M387.9,599.6c3.4,0,5.8-2.5,5.8-6.1s-2.5-6-5.8-6
		s-5.8,2.5-5.8,6S384.6,599.6,387.9,599.6z"/>
	<path class="st0" d="M414.3,585c1.5-1.7,3.6-2.5,6.1-2.5c5.8,0,8.7,3.1,8.7,9.1v10.2c0,1.5-1.2,2.6-2.7,2.6s-2.7-1.2-2.7-2.6v-9.2
		c0-3.3-1.6-5-4.8-5c-1.7,0-3.2,0.7-4.6,2v12.2c0,1.5-1.2,2.6-2.7,2.6s-2.7-1.2-2.7-2.6v-16.3c0-1.8,1.1-3,2.8-3
		C413.2,582.5,414.3,583.6,414.3,585L414.3,585z"/>
	<path class="st0" d="M444.8,584.9c1.3-1.7,2.9-2.5,4.8-2.5c1.4,0,2.8,0.8,2.8,2.5c0,1.8-1.1,2.8-3.4,2.8c-0.1,0-0.6,0-0.8,0h-0.3
		c-1.4,0-2.4,0.8-3.1,2.3v12c0,1.5-1.2,2.6-2.7,2.6s-2.7-1.2-2.7-2.6v-16.3c0-1.8,1.1-3,2.8-3C443.6,582.5,444.8,583.6,444.8,584.9
		L444.8,584.9z"/>
	<path class="st0" d="M466.9,591c1.9,0,3.5,0.5,4.8,1.4v-0.7c0-3.2-1.1-4.8-4-4.8c-1.2,0-2.3,0.1-3.3,0.5c-0.5,0.1-0.9,0.2-1.1,0.2
		c-0.9,0-1.5-0.4-1.8-1.1c-0.1-0.3-0.2-0.6-0.2-0.9c0-0.9,0.5-1.6,1.5-2c1.7-0.8,3.5-1.1,5.4-1.1c6,0,8.5,3,8.5,8.8V602
		c0,1.3-1,2.4-2.4,2.4s-2.3-1-2.3-2.5c-1.4,1.7-3.4,2.5-6.3,2.5c-4,0-6.6-2.5-6.6-6.5C459.1,593.4,462.3,591,466.9,591L466.9,591z
		 M471.7,595.7c-0.9-0.7-2.2-1-3.7-1c-1.9,0-3.4,0.9-3.4,2.6c0,1.6,1.3,2.5,3,2.5c1.8,0,3.2-0.7,4.1-1.9L471.7,595.7L471.7,595.7z"
		/>
	<path class="st0" d="M507.2,601.5c0,1.7-0.9,3-2.7,3c-1.6,0-2.7-1-2.7-2.6c-1.6,1.7-3.7,2.6-6.1,2.6c-3,0-5.4-1-7.3-3
		c-1.8-1.9-2.7-4.5-2.7-7.8s1.1-6.1,3.2-8.2s5-3.2,8.4-3.2c1.8,0,3.2,0.3,4.4,1v-9.7c0-1.5,1.2-2.6,2.7-2.6s2.7,1.2,2.7,2.6V601.5
		L507.2,601.5z M501.8,588.7c-1.4-0.8-2.7-1.3-4.2-1.3c-3.4,0-6.1,2.3-6.1,6.1s2.3,5.9,5.3,5.9c1.8,0,3.5-0.7,5-2.2V588.7z"/>
	<path class="st0" d="M516.6,593.5c0-3.2,1.1-5.9,3.2-8c2.1-2.1,4.9-3.1,8.3-3.1s6.3,1,8.4,3.1c2.1,2.1,3.2,4.8,3.2,8s-1,5.9-3.2,8
		c-2.1,2.1-5,3.2-8.4,3.2s-6.2-1-8.3-3.2C517.7,599.4,516.6,596.7,516.6,593.5z M528.2,599.6c3.4,0,5.8-2.5,5.8-6.1s-2.5-6-5.8-6
		s-5.8,2.5-5.8,6S524.8,599.6,528.2,599.6z"/>
</g>
</svg>
