<?xml version="1.0" encoding="UTF-8"?>
<svg id="Camada_1" data-name="Camada 1" xmlns="http://www.w3.org/2000/svg" viewBox="0 0 617.97 613.52">
  <defs>
    <style>
      .cls-1 {
        fill: #fff;
      }

      .cls-2 {
        fill: #fe8d8f;
      }

      .cls-3 {
        fill: #c2cc47;
      }
    </style>
  </defs>
  <g>
    <path d="m609.27,356.35c-22.22-.13-44.45-.1-66.67-.11-3.03,0-5.59.17-6.15-4.26-3.49-27.17-20.02-44.1-47.52-48.55-4.44-.72-6.19-2.64-6.53-6.67-2.61-30.46-10.67-59.43-23.58-87.13-1.53-3.27-2.17-7.12-2.48-10.77-1.33-15.27-1.83-30.63-3.65-45.84-3.2-26.84-8.93-53.12-22.33-77-3.62-6.45-8.21-12.48-13.05-18.1-4.54-5.28-8.13-5.56-13.12-.74-7.31,7.06-14.91,14.18-20.56,22.52-9.89,14.61-18.36,30.18-27.52,45.29-1.06,1.74-3.01,4.63-4.06,4.43-7.38-1.41-15.42.43-21.6-6.81-5.77-6.76-13.38-11.96-20.29-17.72-.72-.6-2.15-.54-3.2-.42-.32.04-.92,1.64-.67,1.95.66.81,1.64,1.46,2.62,1.87,1.39.59,3.2.53,4.3,1.42,4.88,3.93,9.62,8.05,14.29,12.23,1.16,1.04,1.86,2.58,3.6,5.07-3.78,0-6.03-.05-8.28,0-16.43.43-32.89.51-49.29,1.46-8.95.52-8.62.82-13.27-6.82-10.1-16.59-20.33-33.13-31.35-49.11-4.36-6.32-10.77-11.33-16.64-16.49-3.65-3.21-7.95-2.59-10.89,1.28-5.33,7.01-11.15,13.85-15.22,21.57-14.94,28.35-19.78,59.4-22.73,90.84-1.76,18.8.5,38.35-10.59,55.39-1.15,1.77-1.66,3.98-2.37,6.02-7.23,21.06-12.65,42.54-14.27,64.83-.3,4.19-1.61,6.69-6.39,7.49-5.55.93-11.17,2.48-16.28,4.81-18.63,8.52-27.64,24.29-31.3,43.63-.65,3.44-1.92,4.45-5.39,4.42-22.42-.16-44.84-.15-67.26-.05-3.85.02-9.72-1.37-9.58,4.63.13,5.45,5.83,4.14,9.49,4.15,21.83.07,43.66.06,65.49-.22,4.64-.06,7.42.43,7.42,6.05,0,3.23,1.28,6.55,2.43,9.66,5.35,14.54,18.78,19.08,31.95,10.88,1.49-.93,2.87-2.04,3.75-2.67,5.14,2.86,9.26,6.43,13.95,7.52,11.11,2.56,20.04-2.89,28.29-9.74,1.76-1.46,4.44-3.16,6.38-2.84,12.66,2.14,20.22-4.21,25.38-14.6,1.62-3.27,3.54-4.51,7.23-4.47,18.09.19,36.18.16,54.28.03,3.88-.03,5.73,1.65,7.75,4.89,3.67,5.9,7.57,12,12.65,16.62,10.53,9.57,23.94,9.61,37.29,9.39,20.02-.32,34.57-8.86,43.12-27.27.71-1.52,3.01-3.25,4.59-3.27,19.07-.23,38.15-.12,57.22-.19,3.44-.01,5.2,1.27,6.24,4.74,2.67,8.97,9.89,14.71,18.29,13.91,8.49-.81,12.72,3.7,18.55,7.41,9.48,6.03,22.76,10.4,33.38-.63,2.88-2.99,4.72-.7,6.91,1.07,9.82,7.94,25.46,4.7,30.68-6.71,2.17-4.74,3.3-10.06,4.24-15.23.67-3.68,2.15-4.75,5.81-4.72,22.22.17,44.44.14,66.67.06,3.48-.01,8.65,1.36,8.55-4.3-.09-5.54-5.28-4.11-8.7-4.13Zm-242.19-226.15c10.68-16.01,21.22-32.12,32.21-47.92,5.33-7.65,8.43-7.52,14.84-.74,10.54,11.15,15.54,25.06,18.22,39.63,3.08,16.78,4.86,33.8,7.12,50.72.27,2.05.04,4.17.04,6.26l-1.53.48c-18.6-23.24-42.74-37.87-71.21-45.86.12-1.11-.05-2.02.32-2.58Zm-58.39,18.92c.88.01,1.76.02,2.64.04,1.01,12.52,2.1,25.03,2.87,37.56.05.87-2.51,2.88-3.4,2.64-1.93-.51-5.13-2.23-5.07-3.3.69-12.33,1.89-24.63,2.96-36.93Zm-128.56,7.51c1.82-19.99,4.7-39.84,13.07-58.26,3.09-6.8,7.88-13.06,12.87-18.7,4.68-5.29,6.95-4.94,11.37.52,5.3,6.54,10.47,13.26,14.99,20.35,6.43,10.07,12.23,20.55,18.96,31.98-28.71,8.02-52.34,23.1-72.71,44.64.48-6.84.84-13.7,1.46-20.53Zm-1.32,218.39c-4.58,1.83-8.39,1.1-10.95-3.56-.75-1.36-1.65-2.7-2.71-3.83-2.75-2.93-5.1-2.28-6.26,1.63-.16.56-.22,1.17-.21,1.75.24,12.54-5.16,13.37-15.17,16.9-7.24,2.56-13.44-1.64-16.31-9.54-1.21-3.33-3-6.45-4.53-9.66-.75.16-1.5.31-2.26.47-1.14,2.85-2.36,5.67-3.4,8.56-2.14,5.96-6.21,9.02-12.23,9.17-5.98.15-9.6-3.32-11.72-8.25-11.09-25.73,4.47-57.56,31.52-64.96,15.15-4.14,29.86-4.78,43.4,4.89,13.65,9.75,19.31,23.9,20.98,39.84.74,7.07-4.25,14.23-10.15,16.58Zm168.29-8.15c-3.96,10.45-12.45,15.83-22.95,18.31-10.97,2.59-21.91,1.44-32.57-1.44-13.31-3.6-21.48-15.14-22.51-30.57-.77-11.45,2.19-22.12,6.66-32.51,3.05-7.09,8.93-7.99,15.61-7.66,11.2.55,14.02,3.3,14.51,14.41.57,13.14,1.13,26.29,1.83,39.42.17,3.14.9,6.25,1.37,9.38.61-.02,1.22-.04,1.83-.06.44-3.76,1.11-7.5,1.29-11.27.66-13.92,1.34-27.84,1.62-41.77.09-4.44,1.6-7.36,5.81-8.22,4.56-.93,9.35-2.06,13.84-1.5,3.21.4,7.36,2.74,8.89,5.45,8.57,15.18,11.12,31.33,4.78,48.03Zm75.17-15.14c-.73,3.12-1.55,4.71-5.25,4.67-17.3-.2-34.61-.21-51.92.03-4.48.06-5.36-1.51-5.74-5.73-.85-9.31.46-16.37,9.48-22.14,10.16-6.51,15.5-17.38,18.86-29.09,1.5-5.23,4.14-10.13,6.29-15.17.73-1.71,1.55-3.39,1.39-5.6-.83.99-1.76,1.92-2.49,2.99-9.93,14.56-25.82,17.99-40.77,8.33-5.08-3.28-9.16-8.15-14.31-11.28-5.73-3.49-11.97-6.48-18.38-8.4-3.67-1.1-5.29-2.42-5.86-5.94-.55-3.43.57-5.45,3.82-6.9,12.95-5.77,21.16-16.01,26.17-28.94,4.43-11.44-.63-20.59-12.47-23.85-14.62-4.02-29.11-3.5-43.58.56-10.27,2.88-15.2,10.95-12.02,21.22,4.29,13.85,12.54,24.65,26,31.14,1.93.93,4,4.01,3.92,6.02-.08,1.97-2.55,5.16-4.42,5.52-10.3,1.99-18.4,7.33-25.79,14.46-7.29,7.02-16,11.01-26.43,11.37-9.99.35-16.86-4.08-21.87-12.24-.69-1.12-1.45-2.21-2.3-3.5-.38.69-.76,1.11-.67,1.27,7.79,14.14,8.95,31.58,21.33,43.41,3.67,3.51,8.08,6.24,11.72,9.77,1.67,1.62,2.68,4.22,3.28,6.56.46,1.8-.28,3.89-.34,5.85q-.31,10.23-10.36,10.19c-15.34-.02-30.68-.11-46.02.02-4.37.04-6.22-.94-7.19-5.97-4.33-22.58-16.04-39.5-39.17-46.31-4.59-1.35-5.32-3.25-4.68-7.96,2.56-18.8,6.32-37.19,15.13-54.19,7.67-14.79,18.63-26.23,34.33-32.53,5.38-2.16,8.54-5.45,10.76-11.24,5.51-14.32,17.87-19.52,32.2-20.91,3.7-.36,7.55.32,11.18-.32,3.2-.56,6.15-2.46,9.31-3.45,2.36-.74,5.19-1.94,7.28-1.27,7.47,2.41,12.36,8.03,16.17,14.72,1.5,2.63.91,4.11-1.75,5.64-7.29,4.18-14.31,8.84-21.67,12.9-1.29.71-4.04-.03-5.51-1.01-9.49-6.31-19.49-6.47-29.89-3.03-.43.14-.7.77-1.33,1.51,5.79,2.39,13.08-.72,18,5.99-6.47,2.57-12.6,5-18.74,7.44.13.51.25,1.02.38,1.53h29.03c-3.33,15.75-11.62,27.56-21.49,39.01,1.65-1.06,3.44-1.95,4.92-3.21,10.01-8.49,18.73-18.01,23.06-30.73,5.41-15.87,18.12-21.49,33.16-24.38,13.25-2.55,25.82-.15,38.06,4.52,9.62,3.67,16.3,10.33,19.71,20.46,4.75,14.1,14.01,24.83,26.61,32.69.72.45,1.62.63,2.72.59-11.43-10.85-20.4-22.99-24.03-39.41h29.43c.05-.37.1-.74.15-1.11-6.09-2.5-12.18-4.99-18.27-7.49-.05-.76-.1-1.52-.15-2.27,5.75-1.2,11.51-2.41,18.57-3.89-6.68-3.75-12.79-4.07-18.8-2.77-4.53.97-8.72,3.4-13.17,4.85-1.75.57-4.22.97-5.65.17-6.49-3.63-12.64-7.88-19.1-11.58-3.82-2.19-4.33-4.38-1.77-7.98,4.32-6.06,9.2-11.44,16.56-13.47,1.92-.53,4.46.82,6.6,1.63,2.7,1.01,5.18,2.98,7.93,3.43,8.65,1.41,17.65,1.36,26.03,3.64,10.26,2.79,16.77,10.35,20.09,20.67.76,2.35,2.73,5.4,4.8,6.07,25.74,8.37,38.41,28.36,45.88,52.31,3.89,12.48,5.68,25.64,8.03,38.56.27,1.49-1.6,4.59-3.03,4.99-24.75,6.98-36.46,25.12-41.95,48.58Zm104.59,24.72c-1.46,6.7-6.09,10.45-11.78,10.37-6.98-.11-11.61-3.95-13.56-10.45-.71-2.36-2.7-4.34-4.1-6.5-1.54,2.08-3.68,3.94-4.54,6.28-5.29,14.39-19.65,17.16-29.79,5.23-1.85-2.18-1.41-6.21-2.36-9.29-.64-2.1-1.85-4.02-2.81-6.02-1.66,1.13-3.73,1.93-4.9,3.44-6.65,8.63-16.42,7.85-20.36-2.55-1.88-4.96-1.91-11.2-.98-16.55,4.2-24.15,21.45-39.47,43.58-39.52,28.16-.06,47.81,14.2,52.18,38.06.74,4.03.74,8.2,1.22,13.88-.45,3.56-.73,8.68-1.81,13.63Z"/>
    <path d="m296.9,23.22c.35.68.69,1.36,1.04,2.04-4.09,4.32-8.18,8.64-11.2,11.84,6.41-1.55,14.1-3.42,21.8-5.28,8.28-2,10.55-6.41,7.13-14.25-1.14-2.61-2.64-5.05-3.97-7.57.43-.37.86-.74,1.28-1.1,25.28,18.3,52.17,34.84,67.05,64.45.45-.32.89-.63,1.34-.95-.83-2.05-1.27-4.4-2.55-6.11-6.97-9.22-13-19.59-21.52-27.1-14.65-12.92-30.86-24.08-46.5-35.87-7.53-5.68-10.71-4.16-11.85,5.31-.43,3.53-1,7.04-1.52,10.64-9.26-3.66-17.35-6.85-27.21-10.75.78,4.48,1.23,7.08,1.66,9.57,11.01-6.24,16.91,3.84,25.04,5.14Z"/>
    <path d="m284.16,115.99c4.27-.24,8.54-.92,12.76-1.65,3.62-.63,6.08.34,7.47,3.92.67,1.73,1.79,3.28,2.71,4.91.6-1.72.06-2.7-.42-3.72-1.53-3.25-2.3-8.13-4.79-9.27-2.24-1.03-6.26,2.61-9.67,3.2-9.17,1.59-18.01-.22-26-4.81-4.52-2.6-6.44-6.68-2.92-11.88,1.12-1.65,1.36-3.9,2.52-7.45-4.24.37-8.67-.54-10.15,1.15-3.12,3.54-1.9,8.2,1.24,11.75,7.24,8.16,15.53,14.52,27.22,13.85Z"/>
    <path d="m265.6,68.74c-1.45-7.12.65-12.66,5.7-17.54,2.46-2.38,4.6-5.09,6.89-7.65-7.17,4.37-13.69,9.5-15.29,18.11-1.39,7.43-1.88,15.03-2.9,23.78,4.12-5.41,6.85-10.57,5.61-16.7Z"/>
    <path d="m282.49,71.7c3.64,1.15,7.54-2.94,8.98-8.96h-15.56c-1.32,5.95,2.66,7.73,6.58,8.96Z"/>
    <path d="m310.99,100.34c5.51,3.57,11.03,7.14,16.54,10.71.26-.41.52-.83.77-1.24-5.4-3.73-10.8-7.47-16.19-11.2-.37.58-.75,1.16-1.12,1.74Z"/>
    <path class="cls-1" d="m464.22,303.15c1.43-.4,3.3-3.5,3.03-4.99-2.35-12.92-4.14-26.08-8.03-38.56-7.47-23.94-20.13-43.94-45.88-52.31-2.08-.67-4.05-3.72-4.8-6.07-3.32-10.31-9.84-17.88-20.09-20.67-8.38-2.28-17.38-2.23-26.03-3.64-2.75-.45-5.23-2.42-7.93-3.43-2.14-.8-4.69-2.15-6.6-1.63-7.36,2.02-12.24,7.4-16.56,13.47-2.56,3.6-2.06,5.79,1.77,7.98,6.46,3.71,12.61,7.95,19.1,11.58,1.43.8,3.9.4,5.65-.17,4.45-1.44,8.65-3.87,13.17-4.85,6-1.29,12.12-.98,18.8,2.77-7.06,1.48-12.81,2.68-18.57,3.89.05.76.1,1.52.15,2.27,6.09,2.5,12.18,4.99,18.27,7.49-.05.37-.1.74-.15,1.11h-29.43c3.63,16.42,12.6,28.56,24.03,39.41-1.1.04-1.99-.13-2.72-.59-12.59-7.86-21.86-18.59-26.61-32.69-3.41-10.13-10.09-16.79-19.71-20.46-12.24-4.67-24.8-7.07-38.06-4.52-15.04,2.89-27.75,8.51-33.16,24.38-4.34,12.73-13.05,22.24-23.06,30.73-1.48,1.26-3.27,2.15-4.92,3.21,9.87-11.45,18.16-23.26,21.49-39.01h-29.03c-.13-.51-.25-1.02-.38-1.53,6.13-2.44,12.27-4.87,18.74-7.44-4.92-6.71-12.21-3.59-18-5.99.64-.75.9-1.37,1.33-1.51,10.4-3.44,20.4-3.28,29.89,3.03,1.47.98,4.22,1.73,5.51,1.01,7.35-4.06,14.37-8.72,21.67-12.9,2.67-1.53,3.25-3,1.75-5.64-3.81-6.68-8.7-12.31-16.17-14.72-2.08-.67-4.92.53-7.28,1.27-3.16.99-6.11,2.89-9.31,3.45-3.63.64-7.47-.04-11.18.32-14.33,1.4-26.69,6.6-32.2,20.91-2.23,5.79-5.38,9.08-10.76,11.24-15.71,6.3-26.67,17.74-34.33,32.53-8.81,17-12.57,35.39-15.13,54.19-.64,4.71.09,6.61,4.68,7.96,23.13,6.81,34.83,23.73,39.17,46.31.96,5.03,2.81,6.01,7.19,5.97,15.34-.14,30.68-.05,46.02-.02q10.06.02,10.36-10.19c.06-1.96.8-4.05.34-5.85-.6-2.34-1.61-4.93-3.28-6.56-3.64-3.53-8.05-6.27-11.72-9.77-12.38-11.83-13.54-29.26-21.33-43.41-.09-.16.3-.58.67-1.27.85,1.29,1.61,2.38,2.3,3.5,5.01,8.16,11.88,12.58,21.87,12.24,10.43-.36,19.15-4.35,26.43-11.37,7.4-7.13,15.49-12.47,25.79-14.46,1.87-.36,4.34-3.55,4.42-5.52.08-2.01-1.98-5.09-3.92-6.02-13.46-6.49-21.71-17.29-26-31.14-3.18-10.27,1.75-18.34,12.02-21.22,14.47-4.06,28.96-4.58,43.58-.56,11.84,3.25,16.89,12.41,12.47,23.85-5.01,12.94-13.22,23.17-26.17,28.94-3.25,1.45-4.37,3.47-3.82,6.9.56,3.52,2.18,4.84,5.86,5.94,6.4,1.92,12.64,4.91,18.38,8.4,5.15,3.13,9.23,8,14.31,11.28,14.95,9.66,30.84,6.23,40.77-8.33.73-1.07,1.65-2,2.49-2.99.16,2.21-.66,3.89-1.39,5.6-2.15,5.04-4.79,9.94-6.29,15.17-3.35,11.71-8.7,22.58-18.86,29.09-9.02,5.78-10.33,12.84-9.48,22.14.38,4.22,1.27,5.8,5.74,5.73,17.3-.24,34.61-.23,51.92-.03,3.7.04,4.52-1.54,5.25-4.67,5.49-23.46,17.2-41.6,41.95-48.58Z"/>
    <path class="cls-2" d="m333.43,313.4c-4.49-.56-9.28.57-13.84,1.5-4.2.86-5.72,3.78-5.81,8.22-.28,13.93-.96,27.85-1.62,41.77-.18,3.77-.84,7.51-1.29,11.27-.61.02-1.22.04-1.83.06-.47-3.13-1.2-6.24-1.37-9.38-.7-13.14-1.26-26.28-1.83-39.42-.49-11.11-3.3-13.86-14.51-14.41-6.68-.33-12.56.57-15.61,7.66-4.47,10.39-7.43,21.06-6.66,32.51,1.03,15.42,9.2,26.97,22.51,30.57,10.66,2.88,21.6,4.03,32.57,1.44,10.5-2.48,18.98-7.86,22.95-18.31,6.34-16.7,3.79-32.85-4.78-48.03-1.53-2.71-5.68-5.05-8.89-5.45Z"/>
    <path class="cls-1" d="m310.8,189.36c.89.24,3.45-1.77,3.4-2.64-.77-12.53-1.86-25.04-2.87-37.56-.88-.01-1.76-.02-2.64-.04-1.07,12.31-2.27,24.61-2.96,36.93-.06,1.07,3.14,2.79,5.07,3.3Z"/>
  </g>
  <g>
    <path class="cls-3" d="m61.03,498.41H23.87l-7.33,18.02c-1.12,2.86-3.23,4.23-6.59,4.23-3.98,0-7.08-3.11-7.08-6.96,0-.87.25-1.74.62-2.73l30.95-72.71c1.86-4.1,4.72-6.22,8.58-6.22s6.46,2.11,8.33,6.22l30.83,72.47c.37,1.12.62,2.11.62,2.98,0,3.85-3.23,6.96-7.08,6.96s-6.22-1.62-7.46-4.72l-7.21-17.53Zm-18.52-45.49l-12.8,31.2h25.48l-12.68-31.2Z"/>
    <path class="cls-3" d="m135.73,432.28c34.8,0,48.85,20.01,48.85,43.01,0,12.93-4.35,23.62-12.93,31.95-8.7,8.45-21.01,12.68-36.92,12.68-2.24,0-7.96-.12-17.03-.25-4.35,0-7.58-3.48-7.58-7.58v-71.84c0-4.1,3.23-7.58,7.58-7.71,8.45-.12,14.42-.25,18.02-.25Zm-10.32,73.09c2.86.12,6.09.25,9.82.25,20.76,0,33.19-11.81,33.19-30.33s-12.43-28.71-32.94-28.71c-3.23,0-6.59.12-10.07.37v58.42Z"/>
    <path class="cls-3" d="m220.99,444.09c8.45-8.58,19.27-12.8,32.44-12.8s23.99,4.1,32.57,12.43c8.58,8.33,12.8,19.14,12.8,32.44s-4.35,23.74-12.93,32.19c-8.58,8.45-19.39,12.68-32.44,12.68s-23.87-4.1-32.44-12.43-12.8-19.14-12.8-32.44,4.23-23.49,12.8-32.07Zm11.81,53.82c5.59,5.84,12.43,8.83,20.63,8.83,8.95,0,16.03-2.86,21.38-8.7,5.22-5.84,7.83-13.05,7.83-21.88s-2.73-16.28-8.33-22c-5.59-5.72-12.55-8.58-20.88-8.58s-15.29,2.86-20.76,8.58c-5.59,5.72-8.33,13.05-8.33,22s2.86,15.91,8.45,21.75Z"/>
    <path class="cls-3" d="m369.15,523.76c9.2.75,13.8,4.35,13.8,10.81s-6.21,10.94-16.53,10.94c-5.72,0-10.44-1.24-14.29-3.85-1.12-.62-1.62-1.74-1.62-3.11,0-.75.25-1.49.62-2.11.87-1.37,1.99-1.99,3.48-1.99.75,0,1.49.12,2.11.5,2.49,1.24,4.6,1.87,6.21,1.87,3.23,0,4.85-1,4.85-3.11,0-1.37-.75-2.36-2.11-2.98-2.49-1.12-3.73-2.98-3.73-5.34v-4.6c-11.93-1.12-21.5-5.72-28.71-13.8s-10.81-18.27-10.81-30.83,3.98-23.74,11.81-32.19c7.83-8.45,18.77-12.68,32.69-12.68,7.33,0,13.8,1.49,19.64,4.47,3.11,1.49,4.72,3.6,4.72,6.46,0,1.12-.37,2.24-.99,3.6-1.37,2.36-3.36,3.48-6.09,3.48-1.49,0-2.86-.25-4.1-.87-4.47-1.87-8.83-2.86-13.18-2.86-8.2,0-14.92,2.73-20.26,8.33-5.35,5.59-8.08,12.93-8.08,22.25s2.86,16.41,8.45,22c5.59,5.72,12.8,8.58,21.63,8.58,4.6,0,9.32-1.12,13.92-3.36,1.86-.87,3.6-1.24,4.97-1.24,2.36,0,4.23.99,5.59,2.86.87,1.12,1.24,2.49,1.24,3.98,0,2.61-1.12,4.6-3.48,6.09-5.47,3.73-12.68,5.72-21.75,5.97v2.73Z"/>
    <path class="cls-3" d="m469.7,498.41h-37.17l-7.33,18.02c-1.12,2.86-3.23,4.23-6.59,4.23-3.98,0-7.09-3.11-7.09-6.96,0-.87.25-1.74.62-2.73l30.95-72.71c1.86-4.1,4.72-6.22,8.58-6.22s6.46,2.11,8.33,6.22l30.83,72.47c.37,1.12.62,2.11.62,2.98,0,3.85-3.23,6.96-7.08,6.96s-6.21-1.62-7.46-4.72l-7.21-17.53Zm-9.94-71.35c-2.11,0-4.97-.87-8.58-2.73-3.73-1.86-6.71-2.73-8.95-2.73-1.49,0-3.48.75-5.84,2.24-1.12.62-2.11.99-3.11.99-1.37,0-2.74-.75-3.85-2.11-.62-.87-.99-1.74-.99-2.86,0-1.62.62-2.98,1.74-3.85,4.6-3.85,8.95-5.72,12.8-5.72,2.61,0,5.59.87,9.2,2.73,3.61,1.87,6.46,2.86,8.58,2.86,1.49,0,3.48-.75,5.84-2.36,2.49-1.87,5.59-1.99,7.46.37.75.87,1.12,1.87,1.12,2.98,0,1.37-.62,2.61-1.86,3.73-4.85,4.35-9.32,6.46-13.55,6.46Zm-8.58,25.85l-12.8,31.2h25.48l-12.68-31.2Z"/>
    <path class="cls-3" d="m522.15,444.09c8.45-8.58,19.27-12.8,32.44-12.8s23.99,4.1,32.57,12.43c8.58,8.33,12.8,19.14,12.8,32.44s-4.35,23.74-12.93,32.19c-8.58,8.45-19.39,12.68-32.44,12.68s-23.87-4.1-32.44-12.43c-8.58-8.33-12.8-19.14-12.8-32.44s4.23-23.49,12.8-32.07Zm11.81,53.82c5.59,5.84,12.43,8.83,20.63,8.83,8.95,0,16.03-2.86,21.38-8.7,5.22-5.84,7.83-13.05,7.83-21.88s-2.73-16.28-8.33-22c-5.59-5.72-12.55-8.58-20.88-8.58s-15.29,2.86-20.76,8.58c-5.59,5.72-8.33,13.05-8.33,22s2.86,15.91,8.45,21.75Z"/>
  </g>
  <g>
    <path d="m78.61,575.39c3.06-3.21,7.26-4.81,12.49-4.81,2.78,0,5.23.57,7.45,1.7,1.18.57,1.79,1.37,1.79,2.45,0,.42-.14.85-.38,1.37-.52.9-1.27,1.32-2.31,1.32-.57,0-1.08-.09-1.56-.33-1.7-.71-3.35-1.08-5-1.08-3.25,0-5.94,1.04-7.97,3.06-2.03,2.07-3.06,4.9-3.06,8.53s1.04,6.27,3.06,8.39c2.03,2.12,4.76,3.21,8.11,3.21,2.5,0,5.56-1.08,6.83-2.26v-5.19h-5.33c-1.46,0-2.64-1.18-2.64-2.73s1.18-2.69,2.64-2.69h8.11c1.46,0,2.64,1.18,2.64,2.64v8.91c0,1.6-.71,2.88-2.07,3.77-2.88,1.84-6.93,2.97-10.28,2.97-5.33,0-9.52-1.56-12.58-4.62-3.06-3.06-4.62-7.21-4.62-12.4,0-4.9,1.56-8.96,4.67-12.21Z"/>
    <path d="m119.24,584.91c1.27-1.65,2.88-2.5,4.81-2.5,1.37,0,2.78.8,2.78,2.45,0,1.84-1.13,2.78-3.39,2.78-.14,0-.57-.05-.75-.05h-.33c-1.37,0-2.4.75-3.11,2.26v11.97c0,1.46-1.18,2.64-2.69,2.64s-2.73-1.18-2.73-2.64v-16.31c0-1.84,1.08-2.97,2.78-2.97,1.51,0,2.64,1.04,2.64,2.36Z"/>
    <path d="m148.75,585.19c0-1.46,1.18-2.64,2.73-2.64s2.69,1.18,2.69,2.64v16.64c0,1.46-1.18,2.64-2.73,2.64s-2.69-1.13-2.69-2.97c-1.7,2.07-3.96,3.11-6.79,3.11-4.38,0-7.45-2.97-7.45-8.77v-10.65c0-1.46,1.18-2.64,2.73-2.64s2.69,1.18,2.69,2.64v9.52c0,3.25,1.37,4.85,4.05,4.85,1.84,0,3.44-.85,4.76-2.59v-11.78Z"/>
    <path d="m164.92,585.61c0-1.93,1.08-3.06,2.78-3.06,1.51,0,2.64.99,2.64,2.31,1.37-1.46,3.91-2.5,6.55-2.5,2.88,0,5.23.99,6.98,3.02,1.74,2.03,2.64,4.62,2.64,7.78s-1.04,6.03-3.11,8.2c-2.07,2.17-4.76,3.25-8.11,3.25-2.12,0-3.77-.33-4.95-1.04v7.31c0,1.46-1.18,2.64-2.69,2.64s-2.73-1.18-2.73-2.64v-25.26Zm5.42,12.73c1.27.8,2.73,1.22,4.48,1.22,3.63,0,5.94-2.64,5.94-6.27,0-3.44-2.03-5.84-5.56-5.84-1.84,0-3.49.75-4.85,2.31v8.58Z"/>
    <path d="m194.61,593.49c0-3.25,1.08-5.89,3.21-8.01,2.12-2.07,4.9-3.11,8.34-3.11s6.27,1.04,8.39,3.11c2.12,2.12,3.16,4.76,3.16,8.01s-1.04,5.89-3.16,7.97c-2.12,2.12-4.95,3.16-8.39,3.16s-6.22-1.04-8.34-3.16c-2.12-2.07-3.21-4.71-3.21-7.97Zm11.55,6.08c3.39,0,5.8-2.45,5.8-6.08s-2.45-6.03-5.8-6.03-5.75,2.45-5.75,6.03,2.4,6.08,5.75,6.08Z"/>
    <path d="m241.56,597.35c.52-.61,1.18-.94,2.03-.94.71,0,1.41.24,2.07.71,1.84,1.37,3.58,2.07,5.23,2.07,2.83,0,4.81-1.41,4.81-3.86,0-6.46-14.94-4.95-14.94-15.65,0-2.59.94-4.76,2.83-6.5,1.84-1.74,4.34-2.59,7.45-2.59,2.59,0,4.71.47,6.46,1.37,1.27.66,1.93,1.51,1.93,2.59,0,.42-.14.9-.42,1.37-.52.9-1.23,1.32-2.22,1.32-.52,0-.99-.09-1.46-.33-1.46-.61-2.73-.94-3.91-.94-2.83,0-4.52,1.46-4.52,3.68,0,6.83,14.94,4.67,14.94,15.65,0,2.73-1.04,4.95-3.16,6.69s-4.71,2.64-7.87,2.64c-3.44,0-6.36-1.08-8.86-3.21-.71-.61-1.08-1.37-1.08-2.22,0-.66.24-1.27.71-1.84Z"/>
    <path d="m277.85,590.99c1.93,0,3.54.47,4.81,1.37v-.66c0-3.25-1.08-4.81-3.96-4.81-1.18,0-2.31.14-3.3.47-.52.14-.85.19-1.08.19-.85,0-1.46-.38-1.84-1.13-.14-.28-.19-.57-.19-.9,0-.9.52-1.6,1.56-2.03,1.74-.75,3.53-1.13,5.42-1.13,6.03,0,8.48,2.97,8.48,8.81v10.79c0,1.27-1.04,2.4-2.4,2.4s-2.31-1.04-2.31-2.55c-1.37,1.7-3.44,2.55-6.27,2.55-3.96,0-6.65-2.5-6.65-6.5,0-4.48,3.21-6.88,7.73-6.88Zm3.91-11.64c-.71,0-1.6-.38-2.69-1.18-1.08-.8-2.03-1.18-2.73-1.18-.33,0-.94.28-1.79.8-.52.33-.94.47-1.27.47-.42,0-.9-.24-1.32-.71-.24-.24-.33-.57-.33-.94,0-.61.24-1.18.75-1.6,1.56-1.32,3.02-1.98,4.38-1.98.75,0,1.7.38,2.83,1.18,1.13.8,2.03,1.18,2.64,1.18.85,0,1.41-.52,1.93-.9.52-.33.94-.52,1.37-.52s.85.19,1.23.61c.28.33.42.66.42,1.04,0,.52-.24,1.04-.75,1.46-1.7,1.51-3.25,2.26-4.67,2.26Zm.9,16.36c-.9-.71-2.17-1.04-3.72-1.04-1.93,0-3.39.94-3.39,2.64,0,1.56,1.27,2.5,3.02,2.5,1.84,0,3.21-.66,4.1-1.93v-2.17Z"/>
    <path d="m296.71,593.49c0-3.25,1.08-5.89,3.21-8.01,2.12-2.07,4.9-3.11,8.34-3.11s6.27,1.04,8.39,3.11c2.12,2.12,3.16,4.76,3.16,8.01s-1.04,5.89-3.16,7.97c-2.12,2.12-4.95,3.16-8.39,3.16s-6.22-1.04-8.34-3.16c-2.12-2.07-3.21-4.71-3.21-7.97Zm11.55,6.08c3.39,0,5.8-2.45,5.8-6.08s-2.45-6.03-5.8-6.03-5.75,2.45-5.75,6.03,2.4,6.08,5.75,6.08Z"/>
    <path d="m359.91,576c-3.11,0-5.66,1.04-7.68,3.16-2.03,2.12-3.06,4.9-3.06,8.44s1.08,6.22,3.21,8.34c2.12,2.17,4.85,3.25,8.2,3.25,1.74,0,3.54-.42,5.28-1.27.71-.33,1.37-.47,1.88-.47.9,0,1.6.38,2.12,1.08.33.42.47.94.47,1.51,0,.99-.42,1.74-1.32,2.31-2.31,1.51-5.28,2.26-8.96,2.26-5.04,0-9.14-1.56-12.3-4.67-3.16-3.11-4.71-7.21-4.71-12.35s1.51-9,4.48-12.21,7.12-4.81,12.4-4.81c2.78,0,5.23.57,7.45,1.7,1.18.57,1.79,1.37,1.79,2.45,0,.42-.14.85-.38,1.37-.52.9-1.27,1.32-2.31,1.32-.57,0-1.08-.09-1.56-.33-1.7-.71-3.35-1.08-5-1.08Z"/>
    <path d="m376.36,593.49c0-3.25,1.08-5.89,3.21-8.01,2.12-2.07,4.9-3.11,8.34-3.11s6.27,1.04,8.39,3.11c2.12,2.12,3.16,4.76,3.16,8.01s-1.04,5.89-3.16,7.97c-2.12,2.12-4.95,3.16-8.39,3.16s-6.22-1.04-8.34-3.16c-2.12-2.07-3.21-4.71-3.21-7.97Zm11.55,6.08c3.39,0,5.8-2.45,5.8-6.08s-2.45-6.03-5.8-6.03-5.75,2.45-5.75,6.03,2.4,6.08,5.75,6.08Z"/>
    <path d="m414.31,584.95c1.55-1.65,3.58-2.45,6.08-2.45,5.8,0,8.72,3.06,8.72,9.14v10.18c0,1.46-1.18,2.64-2.69,2.64s-2.73-1.18-2.73-2.64v-9.24c0-3.35-1.6-5-4.76-5-1.74,0-3.25.66-4.62,2.03v12.21c0,1.46-1.18,2.64-2.69,2.64s-2.73-1.18-2.73-2.64v-16.31c0-1.84,1.08-2.97,2.78-2.97,1.51,0,2.64,1.08,2.64,2.4Z"/>
    <path d="m444.76,584.91c1.27-1.65,2.88-2.5,4.81-2.5,1.37,0,2.78.8,2.78,2.45,0,1.84-1.13,2.78-3.39,2.78-.14,0-.57-.05-.75-.05h-.33c-1.37,0-2.4.75-3.11,2.26v11.97c0,1.46-1.18,2.64-2.69,2.64s-2.73-1.18-2.73-2.64v-16.31c0-1.84,1.08-2.97,2.78-2.97,1.51,0,2.64,1.04,2.64,2.36Z"/>
    <path d="m466.86,590.99c1.93,0,3.54.47,4.81,1.37v-.66c0-3.25-1.08-4.81-3.96-4.81-1.18,0-2.31.14-3.3.47-.52.14-.85.19-1.08.19-.85,0-1.46-.38-1.84-1.13-.14-.28-.19-.57-.19-.9,0-.9.52-1.6,1.55-2.03,1.74-.75,3.54-1.13,5.42-1.13,6.03,0,8.48,2.97,8.48,8.81v10.79c0,1.27-1.04,2.4-2.4,2.4s-2.31-1.04-2.31-2.55c-1.37,1.7-3.44,2.55-6.27,2.55-3.96,0-6.65-2.5-6.65-6.5,0-4.48,3.21-6.88,7.73-6.88Zm4.81,4.71c-.9-.71-2.17-1.04-3.72-1.04-1.93,0-3.39.94-3.39,2.64,0,1.56,1.27,2.5,3.02,2.5,1.84,0,3.21-.66,4.1-1.93v-2.17Z"/>
    <path d="m507.21,601.45c0,1.65-.85,3.02-2.69,3.02-1.56,0-2.69-1.04-2.73-2.59-1.65,1.74-3.68,2.59-6.08,2.59-3.02,0-5.42-.99-7.26-2.97-1.84-1.93-2.73-4.52-2.73-7.78s1.08-6.08,3.25-8.2,4.95-3.16,8.39-3.16c1.79,0,3.25.33,4.43,1.04v-9.66c0-1.46,1.18-2.64,2.73-2.64s2.69,1.18,2.69,2.64v27.71Zm-5.42-12.73c-1.37-.85-2.73-1.27-4.2-1.27-3.39,0-6.08,2.31-6.08,6.08s2.31,5.89,5.33,5.89c1.84,0,3.49-.71,4.95-2.17v-8.53Z"/>
    <path d="m516.64,593.49c0-3.25,1.08-5.89,3.21-8.01,2.12-2.07,4.9-3.11,8.34-3.11s6.27,1.04,8.39,3.11c2.12,2.12,3.16,4.76,3.16,8.01s-1.04,5.89-3.16,7.97c-2.12,2.12-4.95,3.16-8.39,3.16s-6.22-1.04-8.34-3.16c-2.12-2.07-3.21-4.71-3.21-7.97Zm11.55,6.08c3.39,0,5.8-2.45,5.8-6.08s-2.45-6.03-5.8-6.03-5.75,2.45-5.75,6.03,2.4,6.08,5.75,6.08Z"/>
  </g>
</svg>