<?xml version="1.0" encoding="utf-8"?>
<!-- Generator: Adobe Illustrator 27.3.1, SVG Export Plug-In . SVG Version: 6.00 Build 0)  -->
<svg version="1.1" id="Camada_1" xmlns="http://www.w3.org/2000/svg" xmlns:xlink="http://www.w3.org/1999/xlink" x="0px" y="0px"
	 viewBox="0 0 50 50" style="enable-background:new 0 0 50 50;" xml:space="preserve">
<style type="text/css">
	.st0{fill:#C2CC47;}
</style>
<g>
	<path class="st0" d="M22.4,41.89c0.12,0.06,0.23,0.11,0.35,0.17c0.77,0.34,1.6,0.41,2.42,0.46c0.42,0.02,0.84,0.05,1.25,0
		c0.88-0.12,1.78-0.28,2.51-0.84c0.52-0.4,0.93-0.9,0.93-1.63c0-0.24,0.05-0.48,0.01-0.71c-0.11-0.72-0.55-1.22-1.15-1.59
		c-0.44-0.27-0.9-0.52-1.37-0.74c-0.27-0.13-0.58-0.19-0.87-0.29c-0.28-0.1-0.56-0.25-0.85-0.33c-0.52-0.15-1.05-0.28-1.57-0.42
		c-0.36-0.1-0.71-0.21-1.07-0.31c-0.41-0.12-0.84-0.21-1.24-0.36c-0.74-0.27-1.47-0.56-2.19-0.88c-0.64-0.29-1.29-0.6-1.87-0.99
		c-1.18-0.79-2.17-1.8-2.91-3.03c-0.51-0.85-0.86-1.77-1-2.75c-0.09-0.68-0.18-1.36-0.19-2.04c-0.03-1.15,0.19-2.27,0.61-3.35
		c0.69-1.77,1.79-3.22,3.36-4.33c1.22-0.87,2.56-1.46,4.01-1.8c0.6-0.14,1.21-0.19,1.82-0.28c0.35-0.05,0.69-0.12,1.04-0.14
		c0.24-0.01,0.48,0.06,0.73,0.08c0.35,0.04,0.71,0.05,1.06,0.1c0.74,0.12,1.49,0.22,2.22,0.41c1.44,0.38,2.76,1.02,3.97,1.9
		c0.77,0.56,1.46,1.2,2.1,1.91c0.48,0.54,0.84,1.15,1.24,1.74c0.14,0.2,0.26,0.42,0.38,0.63c0.29,0.5,0.11,1.01-0.41,1.26
		c-0.38,0.18-0.72,0.43-1.09,0.64c-0.36,0.21-0.74,0.38-1.11,0.59c-0.85,0.48-1.69,0.97-2.53,1.45c-0.53,0.31-0.87,0.2-1.22-0.31
		c-0.37-0.54-0.74-1.09-1.2-1.56c-0.65-0.66-1.47-1.04-2.38-1.23c-0.78-0.16-1.57-0.1-2.36-0.09c-0.63,0.01-1.21,0.25-1.73,0.62
		c-0.75,0.54-1.05,1.29-0.91,2.18c0.08,0.52,0.41,0.94,0.81,1.28c0.58,0.5,1.24,0.85,1.95,1.12c0.82,0.31,1.65,0.61,2.48,0.89
		c0.44,0.15,0.9,0.27,1.34,0.4c0.81,0.25,1.64,0.47,2.44,0.77c0.82,0.3,1.64,0.64,2.42,1.03c1.01,0.51,1.95,1.16,2.75,1.98
		c0.89,0.93,1.53,2.02,1.86,3.27c0.15,0.56,0.21,1.14,0.29,1.72c0.06,0.4,0.11,0.8,0.1,1.21c-0.02,0.62-0.08,1.23-0.16,1.85
		c-0.06,0.42-0.15,0.84-0.3,1.23c-0.15,0.38-0.22,0.79-0.42,1.14c-0.23,0.4-0.43,0.81-0.69,1.19c-0.25,0.37-0.55,0.71-0.85,1.04
		c-0.31,0.33-0.63,0.64-0.98,0.92c-0.35,0.29-0.73,0.55-1.13,0.79c-0.38,0.23-0.79,0.43-1.2,0.62c-1.01,0.47-2.08,0.77-3.17,0.98
		c-0.58,0.11-1.17,0.18-1.75,0.22c-0.82,0.05-1.64,0.07-2.47,0.05c-0.55-0.01-1.1-0.12-1.66-0.18c-0.31-0.04-0.61-0.07-0.92-0.12
		c-1.19-0.19-2.31-0.58-3.39-1.08c-2.35-1.08-4.08-2.81-5.37-5.02c-0.28-0.48-0.54-0.97-0.81-1.46c-0.11-0.21-0.05-0.33,0.24-0.5
		c0.49-0.29,0.98-0.57,1.47-0.85c0.88-0.52,1.76-1.05,2.64-1.57c0.48-0.29,0.96-0.57,1.44-0.85c0.03-0.02,0.07-0.01,0.11,0
		c0.34,0.06,0.59,0.21,0.73,0.58c0.13,0.34,0.37,0.65,0.58,0.95c0.38,0.55,0.82,1.03,1.36,1.43c0.16,0.11,0.23,0.29,0.5,0.31
		c0.22,0.02,0.41,0.27,0.62,0.39c0.1,0.06,0.22,0.06,0.33,0.09C22.41,41.87,22.4,41.88,22.4,41.89z"/>
	<path class="st0" d="M34.46,5.93c-0.09,3.21-2.5,5.53-5.59,5.59c-3.13,0.07-5.77-2.62-5.66-5.85c0.1-2.95,2.37-5.05,4.85-5.39
		c0.82-0.11,1.62-0.04,2.41,0.2c0.78,0.24,1.48,0.64,2.1,1.17c0.64,0.55,1.1,1.22,1.42,1.99C34.32,4.41,34.46,5.21,34.46,5.93z"/>
	<path class="st0" d="M13.15,10.63c-0.04-2.15,1.76-3.79,3.52-3.95c2.78-0.25,4.59,1.88,4.49,4.18c-0.1,2.34-1.82,3.8-3.99,3.85
		C15.03,14.76,13.1,12.96,13.15,10.63z"/>
</g>
</svg>
